<svg width="122" height="28" viewBox="0 0 122 28" fill="none" xmlns="http://www.w3.org/2000/svg">
  <g clip-path="url(#clip0_2_3538)">
  <path d="M33.6406 13.5578C35.475 13.5578 36.7063 14.4119 37.4601 15.4731V0.357542C37.4596 0.291647 37.4415 0.227169 37.4077 0.171239C37.3738 0.115309 37.3256 0.0701078 37.2684 0.040638C37.2112 0.0111682 37.1472 -0.00142168 37.0834 0.00426006C37.0197 0.0099418 36.9587 0.0336739 36.9073 0.0728315L18.79 13.7131H19.2674C21.152 13.7131 22.1069 14.9554 22.1069 16.3013C22.1289 16.751 22.0214 17.1973 21.7978 17.5841C21.5743 17.971 21.2447 18.2811 20.8505 18.4755C20.8226 18.4866 20.7987 18.5062 20.7818 18.5316C20.7649 18.557 20.7559 18.5871 20.7559 18.6179C20.7559 18.6486 20.7649 18.6787 20.7818 18.7041C20.7987 18.7295 20.8226 18.7491 20.8505 18.7602C21.2866 18.9656 21.6548 19.2981 21.9093 19.7168C22.1639 20.1354 22.2937 20.6217 22.2828 21.1155C22.2828 22.6685 21.3028 23.885 19.4182 23.885H14.2669C14.2404 23.8853 14.2141 23.8802 14.1896 23.8699C14.165 23.8597 14.1427 23.8444 14.124 23.8251C14.1053 23.8058 14.0905 23.7829 14.0805 23.7576C14.0705 23.7323 14.0655 23.7052 14.0659 23.6779V17.259L0.572107 27.4309C0.519161 27.4693 0.479467 27.524 0.458798 27.5872C0.438129 27.6503 0.437563 27.7186 0.457184 27.7821C0.476804 27.8457 0.515587 27.9011 0.567892 27.9403C0.620196 27.9796 0.683292 28.0006 0.748003 28.0004H37.1334C37.1734 28.0018 37.2132 27.9948 37.2505 27.9797C37.2877 27.9646 37.3215 27.9417 37.3498 27.9126C37.3781 27.8835 37.4002 27.8487 37.4149 27.8103C37.4295 27.772 37.4364 27.7309 37.435 27.6898V22.5391C36.4 23.5353 35.032 24.0822 33.6155 24.0662C30.7007 24.0662 28.3386 21.9956 28.3386 18.812C28.3386 15.6284 30.7509 13.5578 33.6406 13.5578ZM26.4289 23.7038C26.4296 23.7278 26.4255 23.7517 26.4169 23.774C26.4083 23.7963 26.3954 23.8166 26.3789 23.8335C26.3624 23.8505 26.3428 23.8638 26.3211 23.8727C26.2995 23.8815 26.2763 23.8857 26.253 23.885H24.5191C24.4959 23.8857 24.4727 23.8815 24.451 23.8727C24.4294 23.8638 24.4097 23.8505 24.3932 23.8335C24.3767 23.8166 24.3638 23.7963 24.3552 23.774C24.3466 23.7517 24.3426 23.7278 24.3433 23.7038V13.8942C24.3426 13.8703 24.3466 13.8464 24.3552 13.8241C24.3638 13.8018 24.3767 13.7815 24.3932 13.7645C24.4097 13.7476 24.4294 13.7342 24.451 13.7254C24.4727 13.7165 24.4959 13.7123 24.5191 13.7131H26.253C26.2763 13.7123 26.2995 13.7165 26.3211 13.7254C26.3428 13.7342 26.3624 13.7476 26.3789 13.7645C26.3954 13.7815 26.4083 13.8018 26.4169 13.8241C26.4255 13.8464 26.4296 13.8703 26.4289 13.8942V23.7038Z" fill="#6D6D6D"/>
  <path d="M16.3792 17.7503H18.8167C19.5203 17.7503 19.9726 17.3362 19.9726 16.6891C19.9726 16.0421 19.5203 15.6279 18.8167 15.6279H16.2787C16.2527 15.6297 16.2281 15.6412 16.2096 15.6603C16.1911 15.6793 16.18 15.7046 16.1782 15.7315V17.5691C16.1827 17.6202 16.2061 17.6674 16.2435 17.7012C16.2809 17.7349 16.3296 17.7525 16.3792 17.7503Z" fill="#6D6D6D"/>
  <path d="M16.3793 21.995H18.9172C19.6962 21.995 20.1736 21.555 20.1736 20.8303C20.1736 20.1832 19.7213 19.6655 18.9172 19.6655H16.3793C16.3528 19.6652 16.3265 19.6703 16.3019 19.6806C16.2774 19.6909 16.2551 19.7061 16.2364 19.7254C16.2176 19.7447 16.2028 19.7677 16.1929 19.793C16.1829 19.8182 16.1779 19.8453 16.1782 19.8726V21.7879C16.1818 21.8416 16.2041 21.8922 16.241 21.9303C16.278 21.9684 16.3271 21.9914 16.3793 21.995Z" fill="#6D6D6D"/>
  <path d="M35.8786 16.6374C35.6172 16.2799 35.2797 15.9891 34.8919 15.7871C34.5042 15.5852 34.0767 15.4776 33.6422 15.4727C31.833 15.4727 30.5264 16.8962 30.5264 18.8115C30.5264 20.7269 31.833 22.1504 33.6422 22.1504C34.3791 22.143 35.0936 21.8886 35.6776 21.4257C35.7091 21.3903 35.727 21.3443 35.7279 21.2963V20.3127C35.725 20.2725 35.7082 20.2348 35.6805 20.2063C35.6528 20.1778 35.6161 20.1604 35.5771 20.1574H33.3407C33.3142 20.1578 33.2879 20.1527 33.2634 20.1424C33.2388 20.1321 33.2165 20.1169 33.1978 20.0976C33.1791 20.0783 33.1643 20.0553 33.1543 20.03C33.1443 20.0048 33.1394 19.9777 33.1397 19.9504V18.5009C33.1394 18.4737 33.1443 18.4466 33.1543 18.4213C33.1643 18.396 33.1791 18.3731 33.1978 18.3538C33.2165 18.3345 33.2388 18.3192 33.2634 18.3089C33.2879 18.2987 33.3142 18.2935 33.3407 18.2939H37.4868V15.9903L36.1551 16.7409C36.1042 16.7519 36.0514 16.748 36.0025 16.7297C35.9537 16.7114 35.9108 16.6794 35.8786 16.6374Z" fill="#6D6D6D"/>
  <path d="M39.0195 18.8114C39.0195 15.6795 41.2057 13.5572 44.02 13.5572C44.7674 13.5369 45.5064 13.723 46.1603 14.0962C46.8143 14.4694 47.3594 15.0161 47.739 15.6795C47.7523 15.6991 47.761 15.7216 47.7643 15.7452C47.7677 15.7688 47.7656 15.7929 47.7583 15.8156C47.751 15.8382 47.7386 15.8588 47.7221 15.8756C47.7057 15.8925 47.6856 15.9051 47.6636 15.9125L46.5328 16.5337C46.5171 16.5465 46.4988 16.5554 46.4792 16.5598C46.4596 16.5641 46.4394 16.5638 46.4199 16.5588C46.4005 16.5538 46.3824 16.5443 46.3672 16.5309C46.3519 16.5176 46.3398 16.5008 46.3318 16.4819C46.0844 16.0783 45.7438 15.7441 45.3404 15.5092C44.937 15.2744 44.4833 15.1461 44.02 15.136C42.1354 15.136 40.7282 16.6631 40.7282 18.8114C40.7282 20.9596 42.1354 22.4867 44.02 22.4867C44.4833 22.4766 44.937 22.3484 45.3404 22.1135C45.7438 21.8786 46.0844 21.5444 46.3318 21.1408C46.3405 21.1226 46.353 21.1065 46.3683 21.0938C46.3837 21.081 46.4015 21.0718 46.4207 21.0669C46.4398 21.062 46.4597 21.0614 46.4791 21.0652C46.4985 21.0691 46.5168 21.0772 46.5328 21.0891L47.6636 21.6844C47.6863 21.6948 47.7066 21.7102 47.723 21.7295C47.7394 21.7488 47.7516 21.7715 47.7587 21.796C47.7659 21.8206 47.7678 21.8464 47.7644 21.8718C47.761 21.8972 47.7523 21.9215 47.739 21.9432C47.0103 23.1079 45.8292 24.0915 44.02 24.0915C41.2057 24.0656 39.0195 21.9173 39.0195 18.8114Z" fill="#6D6D6D"/>
  <path d="M48.7192 18.8118C48.7192 16.2752 50.1264 14.3082 52.2372 13.7387C55.8305 12.7552 59.1222 16.2235 58.3433 20.08C57.8658 22.4612 56.0315 24.0918 53.5941 24.0918C50.7295 24.066 48.7192 21.84 48.7192 18.8118ZM56.7351 18.8118C56.7351 16.7153 55.4787 15.1364 53.5689 15.1364C51.6592 15.1364 50.4028 16.7153 50.4028 18.8118C50.4028 20.9083 51.6341 22.4871 53.5689 22.4871C55.5038 22.4871 56.7351 20.8824 56.7351 18.8118Z" fill="#6D6D6D"/>
  <path d="M68.6961 23.7552V16.0163L65.7059 23.807C65.7059 23.8329 65.6556 23.8587 65.6305 23.8587H65.0023C64.9772 23.8587 64.9269 23.8329 64.9269 23.807L61.9116 16.0163V23.7552C61.9127 23.7725 61.9102 23.7898 61.9043 23.8061C61.8983 23.8223 61.8891 23.837 61.8772 23.8493C61.8653 23.8615 61.851 23.871 61.8353 23.8771C61.8195 23.8832 61.8027 23.8858 61.7859 23.8846H60.2782C60.2615 23.8858 60.2446 23.8832 60.2289 23.8771C60.2131 23.871 60.1988 23.8615 60.1869 23.8493C60.175 23.837 60.1658 23.8223 60.1599 23.8061C60.154 23.7898 60.1515 23.7725 60.1526 23.7552V13.8162C60.1515 13.7989 60.154 13.7816 60.1599 13.7654C60.1658 13.7492 60.175 13.7344 60.1869 13.7222C60.1988 13.7099 60.2131 13.7004 60.2289 13.6943C60.2446 13.6882 60.2615 13.6857 60.2782 13.6868H62.4393C62.4874 13.6876 62.5344 13.7027 62.5745 13.7302C62.6146 13.7578 62.6461 13.7966 62.6654 13.8421L65.3039 20.8305L67.9172 13.8421C67.9323 13.7937 67.9629 13.752 68.004 13.7239C68.045 13.6957 68.0941 13.6826 68.1433 13.6868H70.3043C70.3211 13.6857 70.3379 13.6882 70.3537 13.6943C70.3694 13.7004 70.3837 13.7099 70.3956 13.7222C70.4075 13.7344 70.4167 13.7492 70.4227 13.7654C70.4286 13.7816 70.4311 13.7989 70.43 13.8162V23.7552C70.4311 23.7725 70.4286 23.7898 70.4227 23.8061C70.4167 23.8223 70.4075 23.837 70.3956 23.8493C70.3837 23.8615 70.3694 23.871 70.3537 23.8771C70.3379 23.8832 70.3211 23.8858 70.3043 23.8846H68.7966C68.7689 23.8766 68.7442 23.8597 68.7262 23.8365C68.7082 23.8133 68.6977 23.7849 68.6961 23.7552Z" fill="#6D6D6D"/>
  <path d="M85.7833 23.7032V13.8937C85.7826 13.8697 85.7867 13.8458 85.7952 13.8235C85.8038 13.8012 85.8168 13.7809 85.8332 13.7639C85.8497 13.747 85.8694 13.7337 85.891 13.7248C85.9127 13.716 85.9359 13.7118 85.9592 13.7125H92.3668C92.3901 13.7118 92.4133 13.716 92.4349 13.7248C92.4566 13.7337 92.4763 13.747 92.4927 13.7639C92.5092 13.7809 92.5222 13.8012 92.5307 13.8235C92.5393 13.8458 92.5434 13.8697 92.5427 13.8937V15.0843C92.5434 15.1083 92.5393 15.1321 92.5307 15.1544C92.5222 15.1767 92.5092 15.197 92.4927 15.214C92.4763 15.2309 92.4566 15.2443 92.4349 15.2531C92.4133 15.262 92.3901 15.2662 92.3668 15.2654H87.693C87.6697 15.2647 87.6465 15.2689 87.6249 15.2778C87.6032 15.2866 87.5836 15.2999 87.5671 15.3169C87.5506 15.3339 87.5377 15.3541 87.5291 15.3765C87.5205 15.3988 87.5164 15.4226 87.5171 15.4466V17.6984C87.5164 17.7224 87.5205 17.7463 87.5291 17.7686C87.5377 17.7909 87.5506 17.8112 87.5671 17.8281C87.5836 17.8451 87.6032 17.8584 87.6249 17.8673C87.6465 17.8761 87.6697 17.8803 87.693 17.8796H92.2663C92.2896 17.8789 92.3128 17.8831 92.3344 17.8919C92.3561 17.9008 92.3758 17.9141 92.3922 17.9311C92.4087 17.9481 92.4216 17.9683 92.4302 17.9906C92.4388 18.0129 92.4429 18.0368 92.4422 18.0608V19.2514C92.4429 19.2754 92.4388 19.2993 92.4302 19.3216C92.4216 19.3439 92.4087 19.3641 92.3922 19.3811C92.3758 19.3981 92.3561 19.4114 92.3344 19.4202C92.3128 19.4291 92.2896 19.4333 92.2663 19.4326H87.693C87.6697 19.4319 87.6465 19.4361 87.6249 19.4449C87.6032 19.4538 87.5836 19.4671 87.5671 19.484C87.5506 19.501 87.5377 19.5213 87.5291 19.5436C87.5205 19.5659 87.5164 19.5898 87.5171 19.6138V22.0726C87.5164 22.0966 87.5205 22.1205 87.5291 22.1428C87.5377 22.1651 87.5506 22.1854 87.5671 22.2023C87.5836 22.2193 87.6032 22.2326 87.6249 22.2415C87.6465 22.2503 87.6697 22.2545 87.693 22.2538H92.3668C92.3901 22.2531 92.4133 22.2573 92.4349 22.2661C92.4566 22.275 92.4763 22.2883 92.4927 22.3053C92.5092 22.3222 92.5222 22.3425 92.5307 22.3648C92.5393 22.3871 92.5434 22.411 92.5427 22.435V23.6256C92.5434 23.6496 92.5393 23.6735 92.5307 23.6958C92.5222 23.7181 92.5092 23.7383 92.4927 23.7553C92.4763 23.7723 92.4566 23.7856 92.4349 23.7944C92.4133 23.8033 92.3901 23.8075 92.3668 23.8068H85.9592C85.8587 23.8844 85.7833 23.8068 85.7833 23.7032Z" fill="#6D6D6D"/>
  <path d="M100.583 23.7809L98.4978 20.1573C98.4808 20.1326 98.4581 20.1125 98.4318 20.099C98.4055 20.0854 98.3764 20.0788 98.347 20.0796H96.8896C96.8663 20.0789 96.8431 20.0831 96.8214 20.092C96.7998 20.1008 96.7801 20.1141 96.7636 20.1311C96.7472 20.1481 96.7342 20.1683 96.7256 20.1906C96.7171 20.213 96.713 20.2368 96.7137 20.2608V23.7032C96.7144 23.7272 96.7103 23.7511 96.7017 23.7734C96.6931 23.7957 96.6802 23.816 96.6637 23.8329C96.6472 23.8499 96.6276 23.8632 96.6059 23.8721C96.5842 23.8809 96.5611 23.8851 96.5378 23.8844H95.1809C95.1576 23.8851 95.1344 23.8809 95.1127 23.8721C95.0911 23.8632 95.0714 23.8499 95.0549 23.8329C95.0385 23.816 95.0255 23.7957 95.0169 23.7734C95.0083 23.7511 95.0043 23.7272 95.005 23.7032V13.8937C95.0043 13.8697 95.0083 13.8458 95.0169 13.8235C95.0255 13.8012 95.0385 13.7809 95.0549 13.7639C95.0714 13.747 95.0911 13.7337 95.1127 13.7248C95.1344 13.716 95.1576 13.7118 95.1809 13.7125H99.3521C101.312 13.7125 102.594 15.0066 102.594 16.8961C102.594 18.5784 101.589 19.5361 100.483 19.8208C100.454 19.8276 100.428 19.841 100.405 19.8602C100.382 19.8793 100.364 19.9036 100.352 19.9312C100.34 19.9587 100.334 19.9888 100.335 20.019C100.336 20.0493 100.343 20.0789 100.357 20.1055C100.759 20.7785 102.016 22.8491 102.493 23.5997C102.512 23.6273 102.523 23.6598 102.524 23.6934C102.526 23.7271 102.519 23.7605 102.503 23.7901C102.488 23.8197 102.464 23.8442 102.436 23.8608C102.407 23.8775 102.375 23.8857 102.342 23.8844H100.759C100.723 23.8862 100.688 23.8774 100.657 23.8591C100.626 23.8407 100.6 23.8136 100.583 23.7809ZM100.81 16.8702C100.81 15.8866 100.106 15.2654 99.126 15.2654H96.9147C96.8914 15.2647 96.8682 15.2689 96.8466 15.2778C96.8249 15.2866 96.8052 15.2999 96.7888 15.3169C96.7723 15.3339 96.7594 15.3541 96.7508 15.3765C96.7422 15.3988 96.7381 15.4226 96.7388 15.4466V18.3196C96.7381 18.3436 96.7422 18.3675 96.7508 18.3898C96.7594 18.4121 96.7723 18.4324 96.7888 18.4493C96.8052 18.4663 96.8249 18.4796 96.8466 18.4885C96.8682 18.4973 96.8914 18.5015 96.9147 18.5008H99.126C100.106 18.5008 100.81 17.8796 100.81 16.8702Z" fill="#6D6D6D"/>
  <path d="M114.303 23.7032V13.8937C114.303 13.8697 114.307 13.8458 114.315 13.8235C114.324 13.8012 114.337 13.7809 114.353 13.7639C114.37 13.747 114.389 13.7337 114.411 13.7248C114.433 13.716 114.456 13.7118 114.479 13.7125H120.912C120.935 13.7118 120.958 13.716 120.98 13.7248C121.002 13.7337 121.021 13.747 121.038 13.7639C121.054 13.7809 121.067 13.8012 121.076 13.8235C121.084 13.8458 121.089 13.8697 121.088 13.8937V15.1102C121.089 15.1341 121.084 15.158 121.076 15.1803C121.067 15.2026 121.054 15.2229 121.038 15.2399C121.021 15.2568 121.002 15.2701 120.98 15.279C120.958 15.2879 120.935 15.292 120.912 15.2913H116.213C116.19 15.2906 116.167 15.2948 116.145 15.3037C116.123 15.3125 116.104 15.3258 116.087 15.3428C116.071 15.3598 116.058 15.38 116.049 15.4023C116.041 15.4246 116.036 15.4485 116.037 15.4725V17.7502C116.036 17.7742 116.041 17.7981 116.049 17.8204C116.058 17.8427 116.071 17.8629 116.087 17.8799C116.104 17.8969 116.123 17.9102 116.145 17.919C116.167 17.9279 116.19 17.9321 116.213 17.9314H120.786C120.81 17.9307 120.833 17.9349 120.854 17.9437C120.876 17.9526 120.896 17.9659 120.912 17.9828C120.929 17.9998 120.942 18.0201 120.95 18.0424C120.959 18.0647 120.963 18.0886 120.962 18.1126V19.329C120.963 19.353 120.959 19.3769 120.95 19.3992C120.942 19.4215 120.929 19.4418 120.912 19.4588C120.896 19.4757 120.876 19.489 120.854 19.4979C120.833 19.5067 120.81 19.5109 120.786 19.5102H116.213C116.19 19.5095 116.167 19.5137 116.145 19.5226C116.123 19.5314 116.104 19.5447 116.087 19.5617C116.071 19.5787 116.058 19.5989 116.049 19.6212C116.041 19.6435 116.036 19.6674 116.037 19.6914V22.1762C116.036 22.2001 116.041 22.224 116.049 22.2463C116.058 22.2686 116.071 22.2889 116.087 22.3059C116.104 22.3228 116.123 22.3362 116.145 22.345C116.167 22.3539 116.19 22.358 116.213 22.3573H120.912C120.935 22.3566 120.958 22.3608 120.98 22.3697C121.002 22.3785 121.021 22.3918 121.038 22.4088C121.054 22.4258 121.067 22.446 121.076 22.4683C121.084 22.4906 121.089 22.5145 121.088 22.5385V23.755C121.089 23.779 121.084 23.8029 121.076 23.8252C121.067 23.8475 121.054 23.8677 121.038 23.8847C121.021 23.9017 121.002 23.915 120.98 23.9239C120.958 23.9327 120.935 23.9369 120.912 23.9362H114.479C114.432 23.9184 114.39 23.8871 114.359 23.8459C114.327 23.8046 114.308 23.7552 114.303 23.7032Z" fill="#6D6D6D"/>
  <path d="M103.85 18.7596C103.85 15.6278 106.036 13.5054 108.851 13.5054C109.598 13.4851 110.337 13.6713 110.991 14.0445C111.645 14.4177 112.19 14.9644 112.57 15.6278C112.583 15.6473 112.592 15.6698 112.595 15.6934C112.598 15.7171 112.596 15.7412 112.589 15.7638C112.581 15.7865 112.569 15.8071 112.553 15.8239C112.536 15.8407 112.516 15.8533 112.494 15.8607L111.363 16.4819C111.348 16.4947 111.329 16.5037 111.31 16.508C111.29 16.5124 111.27 16.5121 111.25 16.507C111.231 16.502 111.213 16.4925 111.198 16.4792C111.182 16.4658 111.17 16.4491 111.162 16.4302C110.915 16.0265 110.574 15.6924 110.171 15.4575C109.767 15.2226 109.314 15.0944 108.851 15.0842C106.966 15.0842 105.559 16.6113 105.559 18.7596C105.559 20.9079 106.966 22.435 108.851 22.435C109.314 22.4248 109.767 22.2966 110.171 22.0617C110.574 21.8269 110.915 21.4927 111.162 21.0891C111.171 21.0708 111.184 21.0548 111.199 21.042C111.214 21.0292 111.232 21.0201 111.251 21.0151C111.27 21.0102 111.29 21.0096 111.31 21.0135C111.329 21.0173 111.347 21.0254 111.363 21.0373L112.494 21.6326C112.517 21.6431 112.537 21.6585 112.554 21.6777C112.57 21.697 112.582 21.7197 112.589 21.7443C112.596 21.7688 112.598 21.7947 112.595 21.8201C112.592 21.8455 112.583 21.8698 112.57 21.8914C111.841 23.0562 110.66 24.0397 108.851 24.0397C106.036 24.0138 103.85 21.8914 103.85 18.7596Z" fill="#6D6D6D"/>
  <path d="M81.5111 23.7552V16.0163L78.5208 23.807C78.5208 23.8329 78.4706 23.8587 78.4455 23.8587H77.8173C77.7921 23.8587 77.7419 23.8329 77.7419 23.807L74.7265 16.0163V23.7552C74.7276 23.7725 74.7251 23.7898 74.7192 23.8061C74.7133 23.8223 74.7041 23.837 74.6922 23.8493C74.6803 23.8615 74.666 23.871 74.6502 23.8771C74.6345 23.8832 74.6177 23.8858 74.6009 23.8846H73.0932C73.0764 23.8858 73.0596 23.8832 73.0438 23.8771C73.0281 23.871 73.0138 23.8615 73.0019 23.8493C72.99 23.837 72.9808 23.8223 72.9748 23.8061C72.9689 23.7898 72.9664 23.7725 72.9675 23.7552V13.8162C72.9664 13.7989 72.9689 13.7816 72.9748 13.7654C72.9808 13.7492 72.99 13.7344 73.0019 13.7222C73.0138 13.7099 73.0281 13.7004 73.0438 13.6943C73.0596 13.6882 73.0764 13.6857 73.0932 13.6868H75.2542C75.3024 13.6876 75.3493 13.7027 75.3894 13.7302C75.4295 13.7578 75.4611 13.7966 75.4803 13.8421L78.1188 20.8305L80.7321 13.8421C80.7473 13.7937 80.7778 13.752 80.8189 13.7239C80.86 13.6957 80.9091 13.6826 80.9583 13.6868H83.1193C83.1361 13.6857 83.1529 13.6882 83.1686 13.6943C83.1844 13.7004 83.1987 13.7099 83.2106 13.7222C83.2225 13.7344 83.2317 13.7492 83.2376 13.7654C83.2435 13.7816 83.246 13.7989 83.2449 13.8162V23.7552C83.246 23.7725 83.2435 23.7898 83.2376 23.8061C83.2317 23.8223 83.2225 23.837 83.2106 23.8493C83.1987 23.8615 83.1844 23.871 83.1686 23.8771C83.1529 23.8832 83.1361 23.8858 83.1193 23.8846H81.6116C81.5818 23.8807 81.5546 23.865 81.5359 23.8409C81.5171 23.8167 81.5082 23.786 81.5111 23.7552Z" fill="#6D6D6D"/>
  </g>
  <defs>
  <clipPath id="clip0_2_3538">
  <rect width="120.637" height="28" fill="white" transform="translate(0.450684)"/>
  </clipPath>
  </defs>
</svg>
