<svg width="153" height="26" viewBox="0 0 153 26" fill="none" xmlns="http://www.w3.org/2000/svg">
<path d="M55.3157 15.4544C55.3003 15.3607 55.2929 15.2119 55.2929 15.0084C55.2929 13.7253 55.7075 12.724 56.537 12.004C57.3665 11.2842 58.2834 10.9242 59.2875 10.9242C60.6114 10.9242 61.532 11.4407 62.0494 12.4737L55.3157 15.4544ZM64.9483 13.6236C64.9329 12.1058 64.3778 10.8737 63.2822 9.92685C62.1864 8.98025 60.8089 8.50684 59.1505 8.50684C58.1007 8.50684 57.1038 8.74552 56.1606 9.22267C55.2168 9.70025 54.4259 10.4433 53.7867 11.4528C53.1476 12.462 52.8276 13.6319 52.8276 14.9618C52.8276 16.8865 53.444 18.4355 54.6767 19.6091C55.9095 20.7828 57.3851 21.3696 59.105 21.3696C61.0682 21.3696 62.7723 20.603 64.2182 19.0693L62.7114 17.3557C61.8288 18.4513 60.7065 18.999 59.3444 18.999C57.9823 18.999 56.9059 18.4983 56.1147 17.4968L64.9712 13.6708L64.9483 13.6236Z" fill="#6D6D6D"/>
<path d="M49.8954 9.28108C49.1875 9.78218 48.6282 10.4235 48.2176 11.2057V8.69448H45.6611V21.1814H48.2176V15.8297C48.2176 14.406 48.5371 13.2714 49.1766 12.4264C49.8153 11.5815 50.7664 11.1589 52.0298 11.1589H52.1668L52.1439 8.50635C51.352 8.52239 50.6029 8.78064 49.8954 9.28108Z" fill="#6D6D6D"/>
<path d="M74.1108 14.8207C73.6998 14.539 73.3155 14.3201 72.9581 14.1636C72.6003 14.0071 72.2312 13.8664 71.8512 13.7409C71.4705 13.6161 71.033 13.4911 70.5384 13.3656C70.0438 13.2405 69.6598 13.1073 69.386 12.9664C68.9901 12.7787 68.7926 12.4816 68.7926 12.0748C68.7926 11.6209 68.9827 11.2807 69.3631 11.0537C69.7431 10.8271 70.2379 10.7134 70.8466 10.7134C72.0027 10.7134 73.0759 11.0499 74.0653 11.7227L75.0239 9.77454C73.7761 8.9297 72.452 8.50684 71.0522 8.50684C69.6521 8.50684 68.5146 8.85541 67.6396 9.55168C66.7643 10.2479 66.327 11.1752 66.327 12.333C66.327 13.9761 67.5902 15.1493 70.1163 15.8535C70.1768 15.8693 70.2681 15.9007 70.3901 15.9476C72.0027 16.4484 72.8096 17.0117 72.8096 17.6377C72.8096 18.0601 72.6418 18.4082 72.3073 18.6821C71.9726 18.9559 71.5161 19.0926 70.9379 19.0926C69.614 19.0926 68.2446 18.5452 66.8293 17.4495L65.5967 19.4915C66.327 20.0863 67.1676 20.5478 68.1187 20.8764C69.0699 21.205 69.9866 21.3694 70.8691 21.3694C72.178 21.3694 73.2507 21.0135 74.0879 20.3014C74.9245 19.5893 75.3432 18.639 75.3432 17.4495C75.3432 16.2605 74.9324 15.384 74.1108 14.8207Z" fill="#6D6D6D"/>
<path d="M40.2839 12.9783C39.7433 13.5649 38.7277 13.8585 37.2366 13.8585H34.1095V7.28613H36.8485C38.3094 7.28613 39.3821 7.52086 40.0669 7.99053C40.7517 8.45999 41.0941 9.26197 41.0941 10.3965C41.0941 11.5312 40.824 12.3912 40.2839 12.9783ZM42.1897 6.20678C41.0787 5.25249 39.3135 4.7749 36.894 4.7749H31.416V21.1819H34.1095V16.3702H36.9398C39.2834 16.3702 41.0217 15.9086 42.1555 14.9853C43.2887 14.0625 43.856 12.6068 43.856 10.6196C43.856 8.63252 43.3003 7.1613 42.1897 6.20678Z" fill="#6D6D6D"/>
<path d="M81.3256 19.0926C80.7778 19.0926 80.3516 18.9163 80.0474 18.5645C79.7429 18.2124 79.5907 17.7394 79.5907 17.1445V10.807H82.7867V8.69472H79.5907V4.7749H77.0342V17.0741C77.0342 18.3886 77.4183 19.433 78.1869 20.2076C78.955 20.9823 79.8833 21.3693 80.9714 21.3693C82.0593 21.3693 83.0523 20.955 83.9502 20.1254L82.9001 18.2708C82.3987 18.8192 81.8736 19.0926 81.3256 19.0926Z" fill="#6D6D6D"/>
<path d="M93.0259 17.9074C92.3257 18.6665 91.474 19.0456 90.4695 19.0456C89.4653 19.0456 88.5899 18.6702 87.8444 17.9192C87.0987 17.1678 86.7261 16.1939 86.7261 14.9968C86.7261 13.7996 87.0914 12.802 87.8217 12.004C88.5523 11.206 89.4269 10.8071 90.4468 10.8071C91.4661 10.8071 92.3257 11.206 93.0259 12.004C93.7259 12.802 94.076 13.7961 94.076 14.9851C94.0758 16.1746 93.7257 17.1484 93.0259 17.9074ZM94.0303 10.8543C92.9954 9.2897 91.679 8.50684 90.0813 8.50684C88.4834 8.50684 87.0987 9.08596 85.9272 10.2438C84.7551 11.4018 84.1694 12.9513 84.1694 14.8911C84.1694 16.8315 84.7401 18.3968 85.8812 19.5856C87.0226 20.7746 88.3616 21.3694 89.8988 21.3694C90.6595 21.3694 91.4167 21.1779 92.1697 20.7942C92.9229 20.4111 93.543 19.8597 94.0301 19.1397V21.1817H96.5865V8.69475H94.0301V10.8543H94.0303Z" fill="#6D6D6D"/>
<path d="M134.482 17.8841C133.759 18.6432 132.842 19.0223 131.732 19.0223C130.621 19.0223 129.704 18.6432 128.982 17.8841C128.259 17.1251 127.897 16.1434 127.897 14.9383C127.897 13.7335 128.259 12.7517 128.982 11.9926C129.704 11.2337 130.621 10.8541 131.732 10.8541C132.842 10.8541 133.76 11.2337 134.482 11.9926C135.205 12.7517 135.567 13.7333 135.567 14.9383C135.567 16.1434 135.205 17.1251 134.482 17.8841ZM131.732 8.50684C129.906 8.50684 128.384 9.12904 127.167 10.373C125.949 11.6172 125.341 13.139 125.341 14.9385C125.341 16.7381 125.949 18.2597 127.167 19.5038C128.384 20.7478 129.906 21.3698 131.732 21.3698C133.558 21.3698 135.079 20.7478 136.297 19.5038C137.515 18.2597 138.123 16.7381 138.123 14.9385C138.123 13.139 137.515 11.6172 136.297 10.373C135.079 9.12904 133.558 8.50684 131.732 8.50684Z" fill="#6D6D6D"/>
<path d="M148.368 17.8955C147.622 18.6467 146.748 19.0223 145.743 19.0223C144.738 19.0223 143.887 18.6432 143.187 17.8841C142.486 17.1252 142.136 16.1511 142.136 14.9616C142.136 13.7728 142.486 12.7827 143.187 11.9926C143.887 11.2022 144.746 10.8071 145.766 10.8071C146.785 10.8071 147.661 11.2022 148.391 11.9926C149.122 12.7827 149.486 13.7763 149.486 14.9733C149.486 16.1704 149.114 17.1445 148.368 17.8955ZM150.308 10.2438C149.152 9.08596 147.759 8.50684 146.131 8.50684C144.502 8.50684 143.187 9.29739 142.182 10.8778V8.69497H139.625V25.7353H142.182V19.3043C143.4 20.6814 144.773 21.3696 146.302 21.3696C147.831 21.3696 149.17 20.7674 150.319 19.5623C151.468 18.3577 152.043 16.7924 152.043 14.8678C152.043 12.9431 151.464 11.4018 150.308 10.2438Z" fill="#6D6D6D"/>
<path d="M119.389 8.50668C118.537 8.50668 117.741 8.72625 117.003 9.16383C116.265 9.6023 115.714 10.2047 115.349 10.9715V3.78906H112.792V21.1817H115.349V14.4217C115.349 13.2636 115.676 12.3836 116.33 11.781C116.984 11.1788 117.753 10.8775 118.636 10.8775C120.492 10.8775 121.42 12.0274 121.42 14.3276V21.1817H123.977V13.5296C123.977 11.9023 123.555 10.6586 122.71 9.79768C121.865 8.93746 120.758 8.50668 119.389 8.50668Z" fill="#6D6D6D"/>
<path d="M109.735 13.2952C108.905 12.5598 107.673 11.9888 106.037 11.5818C104.401 11.1752 103.332 10.7954 102.83 10.4433C102.328 10.0914 102.077 9.58283 102.077 8.91755C102.077 8.25271 102.328 7.75579 102.83 7.42743C103.332 7.09864 103.975 6.93424 104.759 6.93424C105.542 6.93424 106.337 7.07512 107.144 7.35688C107.95 7.63842 108.589 7.99842 109.062 8.43667L110.499 6.34764C109.769 5.72214 108.902 5.23642 107.897 4.89246C106.893 4.54829 105.881 4.37598 104.862 4.37598C103.279 4.37598 101.951 4.78697 100.878 5.60807C99.8054 6.42962 99.2692 7.5993 99.2692 9.11712C99.2692 10.6349 99.7407 11.7618 100.684 12.4971C101.156 12.8881 101.696 13.2053 102.305 13.4475C102.913 13.6903 103.804 13.9563 104.976 14.2455C106.147 14.5354 106.973 14.8558 107.452 15.2079C107.931 15.56 108.171 16.0528 108.171 16.6866C108.171 17.3205 107.916 17.8291 107.406 18.2124C106.896 18.5961 106.208 18.7875 105.341 18.7875C103.606 18.7875 101.932 18.0677 100.319 16.6279L98.6299 18.717C100.562 20.4856 102.776 21.3695 105.272 21.3695C106.976 21.3695 108.354 20.9236 109.404 20.0315C110.453 19.1398 110.979 17.9781 110.979 16.546C110.979 15.1139 110.564 14.031 109.735 13.2952Z" fill="#6D6D6D"/>
<path d="M8.16453 19.7965C8.36266 19.7058 8.56336 19.6225 8.76598 19.5442C8.99468 19.4559 9.2253 19.3728 9.45891 19.3003C9.7498 19.2101 10.043 19.1286 10.3403 19.0638C10.7411 18.9763 11.1466 18.9115 11.5552 18.8706C11.3261 19.6115 11.0728 20.3482 10.7984 21.08C10.8101 21.2218 10.8166 21.3644 10.8202 21.5073C11.3727 21.3952 11.9436 21.3352 12.5281 21.3352C13.1127 21.3352 13.6836 21.3952 14.2361 21.5073C14.2397 21.3642 14.2459 21.2216 14.2579 21.08C13.9835 20.3482 13.7302 19.6115 13.5011 18.8706C13.9097 18.9115 14.3152 18.9761 14.7159 19.0638C15.013 19.1286 15.3065 19.2101 15.5974 19.3003C15.8312 19.3726 16.0616 19.4559 16.2903 19.5442C16.4929 19.6225 16.6938 19.706 16.892 19.7965C18.2977 20.4403 19.5792 21.395 20.6302 22.6341C23.2644 20.2948 24.9341 16.838 24.9341 12.978C24.9341 5.93267 19.3798 0.221191 12.5283 0.221191C5.67688 0.221191 0.122559 5.93267 0.122559 12.978C0.122559 16.838 1.79204 20.295 4.42653 22.6341C5.47725 21.395 6.7588 20.44 8.16453 19.7965Z" fill="#E2DDDB"/>
<path d="M8.98241 22.1045C9.56484 21.8396 10.1798 21.6372 10.8203 21.5073C10.8167 21.3643 10.8105 21.2216 10.7985 21.0801C11.0729 20.3482 11.3262 19.6115 11.5553 18.8706C11.1467 18.9115 10.7412 18.9761 10.3405 19.0638C10.0434 19.1286 9.74993 19.2102 9.45904 19.3003C9.22543 19.3726 8.99481 19.4557 8.76611 19.5442L9.67042 19.7695L8.98241 22.1045Z" fill="#525353"/>
<path d="M6.85045 23.48C6.8731 23.2422 6.88699 23.0024 6.88699 22.7602C6.88699 22.6145 7.00198 22.4962 7.14369 22.4962H7.36918L8.1647 19.7969C6.75897 20.4406 5.47742 21.3954 4.42627 22.6345C5.0057 23.149 5.6313 23.609 6.29687 24.0075C6.47406 23.8235 6.65873 23.6475 6.85045 23.48Z" fill="#5F5F5F"/>
<path d="M16.8916 19.7964L17.6871 22.4958H17.9124C18.0543 22.4958 18.1691 22.614 18.1691 22.7597C18.1691 23.0021 18.183 23.2419 18.2056 23.4795C18.3976 23.647 18.582 23.8232 18.7592 24.0068C19.4248 23.6083 20.0504 23.1483 20.6298 22.6338C19.5789 21.3949 18.2973 20.4401 16.8916 19.7964Z" fill="#5F5F5F"/>
<path d="M15.3861 19.7695L16.2902 19.5442C16.0615 19.4559 15.8309 19.3728 15.5973 19.3003C15.3064 19.2102 15.0132 19.1286 14.7158 19.0638C14.3151 18.9763 13.9096 18.9115 13.501 18.8706C13.7301 19.6115 13.9834 20.3482 14.2578 21.0801C14.2461 21.2218 14.2396 21.3645 14.236 21.5073C14.8768 21.6372 15.4917 21.8396 16.0741 22.1045L15.3861 19.7695Z" fill="#525353"/>
<path d="M12.5279 22.4956H14.2761C14.2401 22.1644 14.2273 21.8343 14.2359 21.5071C13.6834 21.395 13.1125 21.335 12.5279 21.335C11.9434 21.335 11.3727 21.395 10.82 21.5071C10.8283 21.8343 10.8155 22.1644 10.7798 22.4956H12.5279Z" fill="black"/>
<path d="M6.29688 24.0072C6.44115 24.0936 6.58649 24.1778 6.73418 24.2582C6.7859 24.0026 6.82544 23.7431 6.85045 23.48C6.65873 23.6475 6.47406 23.8235 6.29688 24.0072Z" fill="black"/>
<path d="M8.8667 22.4959H10.7798C10.8157 22.1647 10.8286 21.8346 10.82 21.5073C10.1795 21.6372 9.56433 21.8396 8.98212 22.1045L8.8667 22.4959Z" fill="black"/>
<path d="M18.2056 23.48C18.2306 23.7431 18.2701 24.0026 18.3218 24.2582C18.4695 24.1778 18.6151 24.0936 18.7591 24.0072C18.582 23.8235 18.3975 23.6475 18.2056 23.48Z" fill="black"/>
<path d="M16.1894 22.4957L16.074 22.1045C15.4915 21.8396 14.8766 21.6372 14.2358 21.5073C14.2275 21.8346 14.2403 22.1647 14.276 22.4959L16.1894 22.4957Z" fill="black"/>
<path d="M8.86678 22.4958L8.9822 22.1044L9.67042 19.7692L8.76611 19.5439C8.56349 19.6222 8.36258 19.7057 8.16466 19.7963L7.36914 22.4956H8.22323L8.86678 22.4958Z" fill="#393939"/>
<path d="M16.0742 22.1049L16.1897 22.4961H16.8332H17.6875L16.892 19.7967C16.6939 19.706 16.4929 19.6227 16.2903 19.5444L15.3862 19.7697L16.0742 22.1049Z" fill="#393939"/>
<path d="M7.39502 23.0411C7.40313 23.0354 7.41147 23.0296 7.4198 23.0239H7.39615C7.39592 23.0296 7.39524 23.0351 7.39502 23.0411Z" fill="#C0B098"/>
<path d="M12.5283 23.0239H10.703H8.71142H7.41896C7.41106 23.0296 7.40315 23.0354 7.39545 23.0411C7.37835 23.5395 7.31338 24.0283 7.20801 24.5039C8.82042 25.2923 10.6239 25.7349 12.5283 25.7349V23.0239Z" fill="#5F5F5F"/>
<path d="M17.6614 23.0239H17.6377C17.646 23.0296 17.6544 23.0354 17.6625 23.0411C17.662 23.0354 17.6614 23.0299 17.6614 23.0239Z" fill="#AA9678"/>
<path d="M17.6374 23.0239H16.3452H14.3534H12.5283V25.7349C14.4327 25.7349 16.2362 25.2925 17.8486 24.5039C17.7432 24.0283 17.6785 23.5398 17.6612 23.0411C17.6532 23.0354 17.6453 23.0299 17.6374 23.0239Z" fill="#393939"/>
<path d="M18.2057 23.4798C18.183 23.242 18.1691 23.0023 18.1691 22.7601C18.1691 22.6143 18.0541 22.4961 17.9124 22.4961H17.6871H16.8328H16.1893H14.2762H12.528H10.7797H8.86653H8.22297H7.36889H7.1434C7.00148 22.4961 6.88671 22.6143 6.88671 22.7601C6.88671 23.0025 6.87281 23.2423 6.85016 23.4798C6.82515 23.7429 6.78561 24.0025 6.73389 24.2581C6.89013 24.3431 7.04765 24.4258 7.20752 24.504C7.31289 24.0284 7.37766 23.5398 7.39497 23.0412C7.39518 23.0354 7.39582 23.0297 7.39604 23.024H7.41848H8.71093H10.7025H12.5278H14.3529H16.3447H17.6369H17.6594C17.6596 23.0297 17.6602 23.0354 17.6604 23.0412C17.6775 23.5396 17.7425 24.0284 17.8479 24.504C18.008 24.4258 18.1655 24.3431 18.3215 24.2581C18.2702 24.0023 18.2307 23.7429 18.2057 23.4798Z" fill="black"/>
<path d="M16.0799 20.6758C16.0425 20.6316 16.0038 20.5841 15.9639 20.5303C16.0038 20.5843 16.0425 20.6316 16.0799 20.6758Z" fill="#525353"/>
<path d="M16.3654 20.9672C16.3654 20.9672 16.3663 20.9703 16.368 20.9756C16.3663 20.9703 16.3654 20.9672 16.3654 20.9672C16.3654 20.9672 16.2397 20.8648 16.0801 20.6758C16.2395 20.8648 16.3654 20.9672 16.3654 20.9672Z" fill="#AA9678"/>
<path d="M20.1529 9.42625C20.1532 9.42622 20.1534 9.42598 20.1534 9.42571C20.1534 9.42543 20.1531 9.42523 20.1528 9.42525C20.1526 9.42527 20.1524 9.42552 20.1524 9.42579C20.1524 9.42606 20.1526 9.42627 20.1529 9.42625Z" fill="white"/>
<path d="M20.6553 13.0987C20.6553 13.0971 20.6555 13.0958 20.6555 13.0942C20.6555 13.0958 20.6553 13.0974 20.6553 13.0987Z" fill="white"/>
<path d="M20.7878 10.139C20.7857 10.1362 20.7836 10.1336 20.7816 10.1307H20.7819C20.6788 9.98344 20.5724 9.84915 20.4634 9.72718C20.4632 9.72674 20.4627 9.7263 20.4623 9.72608C20.4625 9.72652 20.463 9.72696 20.4634 9.72718C20.4623 9.72608 20.4615 9.72476 20.4606 9.72366C20.411 9.66849 20.361 9.61553 20.3104 9.56564C20.2911 9.54673 20.2715 9.53025 20.2522 9.51223C20.2204 9.48256 20.1885 9.45179 20.1562 9.42432V9.42498V10.6111L20.598 12.6918C20.6027 12.7081 20.6087 12.723 20.6128 12.7399L20.9189 13.0927L20.9218 13.0892H21.2422C21.2427 13.0586 21.2444 13.0285 21.2444 12.998V12.9975C21.2444 12.0162 21.0875 11.0731 20.8034 10.1898C20.7981 10.1731 20.7934 10.156 20.7878 10.139Z" fill="#BBBCBD"/>
<path d="M20.6556 13.0948C20.6556 13.0934 20.6553 13.092 20.6553 13.0903C20.6553 13.092 20.6556 13.0934 20.6556 13.0948Z" fill="#BBBCBD"/>
<path d="M20.6414 12.8952C20.6419 12.8985 20.6427 12.9016 20.6431 12.9051C20.6434 12.907 20.644 12.909 20.6442 12.911C20.6442 12.9112 20.6442 12.9114 20.6442 12.9119C20.65 12.9607 20.6523 13.0114 20.6534 13.0629C20.6536 13.0723 20.6551 13.0811 20.6551 13.0906C20.6551 13.0917 20.6553 13.0928 20.6553 13.0941C20.6553 13.0954 20.6551 13.0965 20.6551 13.0978C20.6551 13.1079 20.6536 13.1174 20.6534 13.1275C20.6523 13.1778 20.6502 13.2277 20.6444 13.2756C20.6444 13.2758 20.6444 13.2761 20.6444 13.2763C20.6442 13.2787 20.6436 13.2809 20.6431 13.2835C20.6427 13.2875 20.6416 13.291 20.641 13.2947C20.6342 13.3468 20.6252 13.3976 20.6132 13.4457C20.6132 13.446 20.6132 13.4462 20.613 13.4464L20.6147 13.4444C20.6149 13.4435 20.6151 13.4429 20.6154 13.442L20.9189 13.093L20.6128 12.7402C20.6128 12.7405 20.6128 12.7407 20.613 12.7409C20.6252 12.7901 20.6344 12.8418 20.6414 12.8952Z" fill="#676A6A"/>
<path d="M20.641 13.2948C20.6419 13.2882 20.6436 13.2823 20.6445 13.2757C20.6502 13.2278 20.6524 13.1779 20.6534 13.1275C20.6537 13.1161 20.6554 13.1056 20.6554 13.0941C20.6554 13.0834 20.6539 13.0735 20.6537 13.0629C20.6526 13.0115 20.6502 12.9607 20.6445 12.9119C20.6438 12.9062 20.6423 12.901 20.6415 12.8952C20.6344 12.8421 20.6252 12.7904 20.613 12.7412C20.6088 12.724 20.6028 12.7089 20.5979 12.6922C20.5686 12.5924 20.5284 12.504 20.481 12.4308C20.4745 12.4212 20.4681 12.4115 20.4615 12.4025C20.4485 12.3845 20.4354 12.3669 20.4215 12.3513C20.401 12.3284 20.3799 12.3073 20.3574 12.29C20.3489 12.2834 20.3399 12.2788 20.3311 12.2728C20.3119 12.2601 20.292 12.2489 20.2715 12.2403C20.2627 12.2366 20.254 12.233 20.245 12.2302C20.2161 12.2209 20.1866 12.2144 20.1561 12.2144C20.1255 12.2144 20.0962 12.2209 20.0672 12.2302C20.0582 12.233 20.0494 12.2366 20.0407 12.2403C20.0201 12.2489 20.0005 12.2601 19.981 12.2728C19.9725 12.2788 19.9633 12.2831 19.955 12.29C19.9325 12.3073 19.9114 12.3284 19.8908 12.3513C19.8769 12.3669 19.8639 12.3845 19.8509 12.4025C19.8442 12.4117 19.8376 12.4214 19.8312 12.4311C19.7838 12.5045 19.7436 12.5926 19.7143 12.6924C19.713 12.6963 19.7117 12.7003 19.7107 12.7042C19.6978 12.75 19.6876 12.7983 19.679 12.848C19.6765 12.8632 19.673 12.8777 19.6711 12.8933C19.6634 12.9486 19.6594 13.0064 19.6585 13.0656C19.6583 13.0737 19.6572 13.0816 19.6572 13.0897H19.6591C19.6591 13.5757 19.8827 13.9695 20.1584 13.9695C20.2059 13.9695 20.2516 13.9568 20.295 13.9348C20.3021 13.9313 20.3089 13.9276 20.3157 13.9234C20.3339 13.9128 20.3514 13.901 20.3685 13.8871C20.3779 13.8794 20.3867 13.87 20.3957 13.8612C20.4177 13.8401 20.4386 13.8161 20.4585 13.7895C20.4722 13.7711 20.4859 13.7524 20.4985 13.7315C20.5066 13.7183 20.5139 13.7038 20.5214 13.6898C20.5352 13.6634 20.5485 13.6357 20.5605 13.6062C20.5647 13.5957 20.5694 13.5856 20.5735 13.5746C20.5887 13.5337 20.6021 13.4908 20.6133 13.4456C20.6252 13.3977 20.6342 13.3469 20.641 13.2948ZM20.174 12.9768C20.0706 12.9768 19.9868 12.8291 19.9868 12.6469C19.9868 12.4647 20.0706 12.317 20.174 12.317C20.2775 12.317 20.3613 12.4647 20.3613 12.6469C20.3613 12.8291 20.2775 12.9768 20.174 12.9768Z" fill="black"/>
<path d="M20.174 12.9772C20.2774 12.9772 20.3613 12.8295 20.3613 12.6473C20.3613 12.4651 20.2774 12.3174 20.174 12.3174C20.0706 12.3174 19.9868 12.4651 19.9868 12.6473C19.9868 12.8295 20.0706 12.9772 20.174 12.9772Z" fill="white"/>
<path d="M19.7144 12.6925C19.7436 12.5925 19.7838 12.5044 19.8313 12.4312C19.8377 12.4213 19.8443 12.4118 19.8509 12.4026C19.8638 12.3846 19.877 12.3672 19.8909 12.3514C19.9114 12.3283 19.9328 12.3077 19.955 12.2901C19.9636 12.2835 19.9725 12.2789 19.9811 12.2729C20.0003 12.26 20.0202 12.249 20.0407 12.2404C20.0495 12.2367 20.0583 12.2331 20.0672 12.2303C20.0961 12.2211 20.1256 12.2145 20.1561 12.2145C20.1867 12.2145 20.2162 12.2208 20.2451 12.2303C20.254 12.2331 20.2628 12.2367 20.2716 12.2404C20.2919 12.249 20.3117 12.26 20.3312 12.2729C20.34 12.2789 20.3489 12.2835 20.3575 12.2901C20.3799 12.3077 20.4011 12.3283 20.4216 12.3514C20.4355 12.367 20.4488 12.3846 20.4616 12.4026C20.4682 12.4118 20.4746 12.4213 20.481 12.431C20.5285 12.5044 20.5684 12.5925 20.5979 12.6923V12.6925L20.1561 10.6118L19.7144 12.6925Z" fill="#909393"/>
<path d="M14.3018 13.0747C14.3012 13.033 14.2986 12.9916 14.2939 12.9508C14.2939 12.9501 14.2937 12.9497 14.2937 12.949C14.289 12.909 14.2826 12.8694 14.2742 12.8305C14.274 12.8294 14.2738 12.8286 14.2736 12.8275C14.2653 12.789 14.2552 12.7514 14.2433 12.7145C14.243 12.7136 14.2426 12.7127 14.2424 12.7119C14.2304 12.6749 14.2167 12.6387 14.2016 12.6035C14.2014 12.6028 14.2009 12.602 14.2005 12.6013C14.1851 12.5659 14.168 12.5312 14.1494 12.4978C14.0926 12.3956 14.0216 12.3026 13.9393 12.222C13.8348 12.1195 13.7117 12.0367 13.5762 11.9793C13.5751 11.9789 13.574 11.9784 13.5728 11.978C13.5059 11.9499 13.436 11.9281 13.3635 11.9132C13.3618 11.9127 13.3599 11.9127 13.3582 11.9123C13.2857 11.8978 13.2107 11.8896 13.134 11.8896C13.0585 11.8896 12.985 11.8976 12.9136 11.9116C12.911 11.9121 12.9085 11.9123 12.9059 11.9127C12.835 11.9272 12.7663 11.9485 12.7007 11.9758C12.699 11.9765 12.6971 11.9771 12.6954 11.9778C12.6287 12.0057 12.565 12.0398 12.5052 12.0793C12.505 12.0795 12.5047 12.0795 12.5045 12.0795C12.444 12.1195 12.3874 12.165 12.3352 12.2154L12.334 12.2195L12.3297 12.2206C12.2463 12.302 12.1747 12.3958 12.1175 12.4991C12.1168 12.5004 12.116 12.5015 12.1153 12.5026C12.0978 12.5343 12.0822 12.5672 12.0674 12.6006C12.0659 12.6042 12.064 12.6077 12.0625 12.6112C12.0493 12.6422 12.0379 12.6743 12.0273 12.7066C12.0251 12.713 12.0226 12.7189 12.0206 12.7253C12.0112 12.7554 12.0037 12.7864 11.9967 12.8176C11.9948 12.8264 11.992 12.8349 11.9901 12.8439C11.9839 12.8747 11.9796 12.9059 11.9755 12.9376C11.9745 12.9472 11.9723 12.9565 11.9713 12.9661C11.967 13.0072 11.9648 13.0492 11.9648 13.0914C11.9648 13.171 11.9728 13.2486 11.9871 13.3237C11.9873 13.3253 11.9875 13.3268 11.9877 13.3286C12.0025 13.4035 12.0238 13.476 12.0516 13.5453C12.052 13.5461 12.0523 13.5472 12.0527 13.5481C12.1089 13.6883 12.1903 13.8152 12.2908 13.9229C12.3703 14.0079 12.4618 14.0811 12.5622 14.1396C12.5627 14.1398 12.5633 14.1402 12.5637 14.1404C12.5951 14.1585 12.6276 14.1749 12.6605 14.1901C12.6633 14.1914 12.6659 14.193 12.6687 14.1941C12.6992 14.2079 12.7309 14.2196 12.7629 14.2308C12.7683 14.2327 12.7736 14.2349 12.779 14.2369C12.8085 14.2466 12.8388 14.2543 12.8694 14.2615C12.8777 14.2635 12.8856 14.2662 12.8939 14.2679C12.9237 14.2743 12.954 14.2785 12.9846 14.2826C12.9938 14.284 13.003 14.2859 13.0121 14.287C13.0521 14.2912 13.0925 14.2936 13.1335 14.2936C13.2949 14.2936 13.4486 14.26 13.5886 14.1991C13.6585 14.1688 13.7249 14.1314 13.7871 14.0883C13.9115 14.002 14.0188 13.8916 14.1028 13.7637C14.1447 13.6998 14.1811 13.6314 14.2106 13.5596C14.2698 13.4158 14.3025 13.2576 14.3025 13.0916C14.3025 13.0888 14.302 13.0861 14.302 13.0833C14.3022 13.0806 14.3018 13.0778 14.3018 13.0747ZM13.1338 12.9338C12.8912 12.9338 12.6947 12.7316 12.6947 12.4824C12.6947 12.2329 12.8914 12.031 13.1338 12.031C13.3763 12.031 13.5728 12.2332 13.5728 12.4824C13.573 12.7316 13.3763 12.9338 13.1338 12.9338Z" fill="black"/>
<path d="M13.1333 12.9336C13.3758 12.9336 13.5724 12.7315 13.5724 12.4822C13.5724 12.2329 13.3758 12.0308 13.1333 12.0308C12.8909 12.0308 12.6943 12.2329 12.6943 12.4822C12.6943 12.7315 12.8909 12.9336 13.1333 12.9336Z" fill="white"/>
<path d="M12.3293 12.2212L12.3336 12.2201L12.3349 12.2159L13.1398 9.68447C13.1398 9.68447 13.1398 9.53457 13.1398 9.3849C13.1398 9.3427 13.1398 9.30095 13.1398 9.26204C13.1398 9.24908 13.1398 9.23633 13.1398 9.22424C13.1398 9.20534 13.1398 9.1882 13.1398 9.17215C13.1398 9.16094 13.1398 9.14996 13.1398 9.14072C13.1398 9.1282 13.1398 9.11787 13.1398 9.1093C13.1398 9.10226 13.1398 9.09611 13.1398 9.09215C13.1398 9.08776 13.1398 9.08534 13.1398 9.08534C12.6916 8.99083 12.2306 8.93896 11.7587 8.93896C11.6011 8.93896 11.4449 8.94578 11.2897 8.95677C11.2671 8.95831 11.2444 8.95984 11.2218 8.9616C10.4136 9.02468 9.61811 9.24138 8.88137 9.5871C8.24957 9.88381 7.66244 10.2746 7.13473 10.7379C7.13451 10.7381 7.13409 10.7385 7.13387 10.7388C6.99217 10.8625 6.85645 10.9933 6.72372 11.1271C6.69892 11.1522 6.6737 11.1768 6.64934 11.2021C6.52452 11.3315 6.40376 11.4651 6.28706 11.6027C6.26162 11.6326 6.23683 11.6632 6.21182 11.6935C6.0947 11.8357 5.98056 11.9805 5.87241 12.1304C5.86344 12.143 5.85489 12.1561 5.84591 12.1687C5.74268 12.3131 5.64457 12.4612 5.54989 12.612C5.53151 12.6414 5.51248 12.6704 5.49432 12.7001C5.4178 12.8249 5.34641 12.9533 5.27588 13.0819H8.93651H8.94292L12.3293 12.2212Z" fill="#BBBCBD"/>
<path d="M15.4252 11.9362C15.4327 11.8375 15.4389 11.7386 15.4438 11.6399C15.4504 11.5061 15.4549 11.3722 15.4575 11.2384C15.4594 11.1344 15.4592 11.0305 15.4587 10.9265C15.4585 10.8964 15.4594 10.8665 15.4589 10.8364C15.4562 10.5685 15.4461 10.3001 15.4301 10.0318C15.4295 10.0313 15.4286 10.0307 15.428 10.0302C15.4275 10.0296 15.4273 10.0289 15.4269 10.0283C15.4258 10.0276 15.4222 10.0254 15.4188 10.0234C15.4156 10.0217 15.413 10.0199 15.407 10.0166C15.3591 9.98827 15.2414 9.91903 15.1358 9.85728C15.1336 9.85596 15.1313 9.85464 15.1292 9.85332C15.1024 9.83771 15.0766 9.82277 15.0533 9.80914C15.0529 9.80892 15.0522 9.80848 15.052 9.80826C15.0319 9.79662 15.015 9.78694 14.9994 9.77793C14.9962 9.77618 14.9919 9.77354 14.9892 9.772C14.9721 9.76211 14.9586 9.75464 14.9509 9.75068C14.7823 9.66079 14.6102 9.57749 14.4354 9.50145C14.0184 9.32035 13.4567 9.16166 13.1401 9.08496V9.31288V9.36606V9.38452C13.1401 9.53442 13.1401 9.68409 13.1401 9.68409L13.938 12.2197L13.9389 12.2219C14.0212 12.3026 14.0921 12.3955 14.149 12.4977C14.1676 12.5314 14.1847 12.5659 14.2 12.6013C14.2005 12.6019 14.2007 12.6026 14.2011 12.6035C14.2165 12.6386 14.23 12.6749 14.2419 12.7118C14.2422 12.7127 14.2426 12.7136 14.2428 12.7144C14.2546 12.7514 14.2648 12.7889 14.2731 12.8274C14.2734 12.8285 14.2736 12.8294 14.2738 12.8305C14.2821 12.8692 14.2887 12.9087 14.2932 12.9489C14.2932 12.9496 14.2935 12.95 14.2935 12.9507C14.2982 12.9914 14.3007 13.0327 14.3014 13.0747L14.3044 13.0815H15.2813C15.3474 12.7138 15.3933 12.3413 15.4226 11.9672C15.4233 11.9569 15.4243 11.9465 15.4252 11.9362Z" fill="#E2DDDB"/>
<path d="M16.7039 11.0396C16.7031 11.0409 16.7025 11.0426 16.7017 11.044C16.7025 11.0426 16.7033 11.0412 16.7039 11.0396Z" fill="#FBB040"/>
<path d="M14.3101 16.6946C14.5317 16.4678 14.741 16.2507 14.9406 16.0377C15.0592 15.9113 15.175 15.7861 15.2858 15.6626C16.1022 14.7511 16.7018 13.8981 17.0623 12.801C17.0709 12.7748 17.0794 12.7406 17.0875 12.7021C17.0888 12.6962 17.0901 12.6904 17.0914 12.6843C17.0999 12.6434 17.1081 12.5979 17.1162 12.5465C17.1194 12.5111 17.1228 12.4768 17.1258 12.4436C17.0352 11.9658 16.8593 11.5016 16.7041 11.043C16.7047 11.0445 16.7052 11.046 16.7058 11.0476C16.705 11.0467 16.702 11.0438 16.7013 11.0432C16.6716 11.0142 16.6404 10.9871 16.6103 10.9586C16.5184 10.8715 16.425 10.7865 16.3299 10.7041C16.0445 10.4566 15.7449 10.2311 15.4302 10.0317C15.4463 10.3001 15.4563 10.5684 15.4591 10.8364C15.4595 10.8665 15.4587 10.8964 15.4589 10.9265C15.4593 11.0304 15.4595 11.1344 15.4576 11.2383C15.455 11.3722 15.4505 11.506 15.4439 11.6399C15.439 11.7388 15.4328 11.8375 15.4253 11.9361C15.4245 11.9465 15.4234 11.9566 15.4228 11.9669C15.3937 12.3412 15.3475 12.7135 15.2815 13.0812L15.1667 13.6392C14.9271 14.6384 14.4402 15.5447 14.0399 16.4806C13.9337 16.7287 13.833 16.9797 13.7447 17.2353C13.7366 17.2588 13.7281 17.2834 13.7197 17.3076C13.8448 17.1725 13.9555 17.0558 14.0397 16.97C14.1316 16.8766 14.2218 16.785 14.3101 16.6946Z" fill="#BBBCBD"/>
<path d="M12.335 12.2163C12.3871 12.166 12.4438 12.1205 12.5042 12.0805C12.5045 12.0802 12.5047 12.0802 12.5049 12.0802C12.5647 12.0407 12.6284 12.0066 12.6951 11.9787C12.6968 11.978 12.6987 11.9774 12.7004 11.9767C12.7661 11.9495 12.8347 11.9282 12.9056 11.9136C12.9082 11.9132 12.9108 11.913 12.9133 11.9126C12.9847 11.8985 13.0582 11.8906 13.1337 11.8906C13.2104 11.8906 13.2852 11.8987 13.3579 11.9132C13.3598 11.9136 13.3615 11.9137 13.3632 11.9141C13.4357 11.929 13.5056 11.951 13.5725 11.9789C13.5736 11.9794 13.5746 11.9798 13.5759 11.9802C13.7116 12.0376 13.8345 12.1205 13.939 12.2229L13.9382 12.2207L13.1403 9.68506L12.335 12.2163Z" fill="#909393"/>
<path d="M12.0515 13.5458C12.0239 13.4766 12.0023 13.4041 11.9876 13.3291C11.9874 13.3276 11.9872 13.326 11.9869 13.3243C11.9726 13.2491 11.9647 13.1715 11.9647 13.092C11.9647 13.0496 11.9669 13.0078 11.9711 12.9667C11.9722 12.957 11.9741 12.9478 11.9754 12.9381C11.9795 12.9067 11.9835 12.8753 11.9899 12.8445C11.9919 12.8355 11.9944 12.8269 11.9966 12.8181C12.0036 12.7869 12.0111 12.7559 12.0205 12.7258C12.0224 12.7194 12.025 12.7135 12.0271 12.7071C12.0378 12.6748 12.0491 12.6427 12.0624 12.6117C12.0639 12.6082 12.0658 12.6047 12.0673 12.6012C12.0821 12.5678 12.0977 12.5348 12.1152 12.5032C12.1158 12.5019 12.1167 12.5008 12.1173 12.4997C12.1746 12.3964 12.2462 12.3025 12.3296 12.2212L8.94294 13.0814H8.93652L12.2909 13.9232C12.1904 13.8155 12.109 13.6887 12.0528 13.5485C12.0521 13.5478 12.0519 13.5467 12.0515 13.5458Z" fill="#676A6A"/>
<path d="M19.6714 12.8932C19.6736 12.8776 19.6768 12.8631 19.6793 12.8479C19.6879 12.7985 19.6979 12.7501 19.711 12.7042C19.7125 12.6991 19.7131 12.6932 19.7144 12.6881L20.1562 10.6074V9.42107C19.7952 9.11447 19.4085 8.94678 19.0059 8.94678C18.4974 8.94678 18.0231 9.23557 17.6685 9.59228C17.2804 9.98261 16.9807 10.4738 16.7381 10.9694C16.727 10.9923 16.7157 11.014 16.7046 11.0371C16.7794 11.1037 16.8533 11.1712 16.9262 11.2398C17.0914 11.3951 17.253 11.5545 17.4123 11.7162C17.4866 11.7916 17.5593 11.8686 17.6324 11.9453C17.71 12.0264 17.7876 12.1075 17.8639 12.1899C17.962 12.296 18.0595 12.4031 18.1558 12.5112C18.1965 12.5567 18.2369 12.6024 18.277 12.6481C18.3931 12.7804 18.5087 12.9132 18.6224 13.0479L18.6226 13.0481C18.6417 13.0688 18.6551 13.0833 18.6603 13.0894H19.6567C19.6567 13.0811 19.6584 13.0736 19.6584 13.0653C19.6599 13.0064 19.6637 12.9486 19.6714 12.8932Z" fill="#E2DDDB"/>
<path d="M16.7049 11.043C16.7044 11.0417 16.7041 11.0405 16.7036 11.0396C16.7029 11.0408 16.7024 11.042 16.7017 11.0435C16.7024 11.0442 16.7059 11.0474 16.7069 11.0483C16.7064 11.0466 16.7056 11.0449 16.7049 11.043Z" fill="#E2DDDB"/>
<path d="M4.67499 14.3908C4.67777 14.3831 4.68098 14.3756 4.68376 14.3679C4.74788 14.1954 4.8182 14.0251 4.89215 13.8565C4.91267 13.8095 4.93404 13.7631 4.9552 13.7163C5.01569 13.584 5.07959 13.4534 5.14585 13.324C5.17278 13.2712 5.19907 13.2185 5.22707 13.1664C5.24246 13.1376 5.25999 13.1101 5.27559 13.0813C5.34633 12.9528 5.41751 12.8244 5.49403 12.6996C5.51219 12.6699 5.53122 12.6409 5.5496 12.6114C5.64428 12.4609 5.7426 12.3125 5.84562 12.1681C5.8546 12.1556 5.86293 12.1424 5.87212 12.1299C5.98027 11.9802 6.09441 11.8352 6.21153 11.693C6.23654 11.6626 6.26133 11.6321 6.28677 11.6022C6.40347 11.4646 6.52401 11.331 6.64905 11.2015C6.67363 11.1763 6.69863 11.1516 6.72343 11.1266C6.85616 10.9927 6.99188 10.8622 7.13358 10.7382L7.13444 10.7374C7.69164 8.81734 9.39703 7.41975 11.4149 7.41975C12.2273 7.41975 13.0348 7.66041 13.7271 8.0958C14.4371 8.5424 15.0157 9.19669 15.3916 9.95933C15.3936 9.96307 15.3955 9.96702 15.3972 9.97076C15.4066 9.9901 15.4173 10.0086 15.4267 10.0281L15.4278 10.0301L15.4299 10.0316C15.7443 10.2308 16.0442 10.4565 16.3295 10.704C16.4246 10.7864 16.518 10.8714 16.6099 10.9585C16.6401 10.987 16.6713 11.0141 16.701 11.0431L16.7027 11.0396L16.7038 11.0374C16.714 11.0156 16.7241 10.9936 16.7345 10.9725C17.0188 9.12702 17.8105 7.79755 18.7443 7.79755C19.4481 7.79755 20.0716 8.55229 20.458 9.71383L20.4619 9.72636L20.4629 9.72768C20.5719 9.84966 20.6784 9.98395 20.7814 10.1312C20.7835 10.1341 20.7852 10.1367 20.7874 10.1396C20.7929 10.1565 20.7976 10.1736 20.803 10.1905L20.7882 10.1301C19.6266 6.59381 16.374 4.04785 12.543 4.04785C7.7376 4.04785 3.84229 8.0536 3.84229 12.9947C3.84229 13.9688 3.99361 14.9066 4.27467 15.7794C4.2751 15.7776 4.27552 15.7761 4.27574 15.7743C4.3311 15.511 4.39714 15.2495 4.4743 14.9906C4.53521 14.7886 4.60211 14.5886 4.67499 14.3908Z" fill="#525353"/>
<path d="M20.9192 13.0934L20.6157 13.4424C20.6155 13.4433 20.6153 13.4439 20.6151 13.4448C20.6036 13.4905 20.5894 13.5336 20.5738 13.5749C20.5698 13.5859 20.5653 13.596 20.5608 13.6066C20.5486 13.6358 20.5358 13.6637 20.5217 13.6901C20.5142 13.7041 20.5067 13.7186 20.4988 13.7318C20.4862 13.7527 20.4727 13.7714 20.4589 13.7898C20.439 13.8164 20.418 13.8404 20.396 13.8615C20.387 13.8703 20.3783 13.8797 20.3689 13.8874C20.3518 13.9015 20.334 13.9131 20.3161 13.9237C20.3092 13.9277 20.3024 13.9316 20.2953 13.9351C20.252 13.9569 20.2062 13.9699 20.1588 13.9699C19.8831 13.9699 19.6595 13.576 19.6595 13.0901H19.6576H19.6571H18.6607H18.6577C18.6579 13.0903 18.6581 13.0905 18.6584 13.0907C18.8443 13.3116 19.0273 13.5356 19.2074 13.7615C19.2096 13.7641 19.2117 13.767 19.2141 13.7696C19.3893 13.9896 19.5622 14.2118 19.733 14.4351C19.7413 14.4461 19.7499 14.4569 19.7582 14.4679C19.9202 14.6804 20.0805 14.8943 20.2394 15.1085C20.2547 15.1294 20.2703 15.1501 20.2857 15.1707C20.4537 15.398 20.6202 15.6259 20.7852 15.854C20.7863 15.8556 20.7876 15.8573 20.7886 15.8589C21.0748 14.9879 21.2349 14.0575 21.245 13.0898H21.2428H20.9224L20.9192 13.0934Z" fill="white"/>
<path d="M11.2217 8.96125C11.2444 8.9595 11.267 8.95796 11.2897 8.95642C11.4449 8.94565 11.6011 8.93862 11.7586 8.93862C12.2304 8.93862 12.6914 8.9907 13.1398 9.08499C13.1398 9.08499 13.1398 9.08741 13.1398 9.09181C13.1398 9.09576 13.1398 9.10191 13.1398 9.10895C13.1398 9.11752 13.1398 9.12829 13.1398 9.14038C13.1398 9.14983 13.1398 9.1606 13.1398 9.17181C13.1398 9.18763 13.1398 9.20543 13.1398 9.22389C13.1398 9.23598 13.1398 9.24873 13.1398 9.2617C13.1398 9.27818 13.1398 9.29532 13.1398 9.31291V9.08499C13.4563 9.1617 14.018 9.32038 14.435 9.50148C14.6101 9.57752 14.7821 9.6606 14.9506 9.75071C14.9582 9.75489 14.9717 9.76236 14.9888 9.77203C14.9918 9.77379 14.9961 9.77621 14.9991 9.77796C15.0147 9.78698 15.0318 9.79665 15.0516 9.80829C15.0521 9.80851 15.0527 9.80895 15.0529 9.80917C15.0764 9.8228 15.1019 9.83775 15.1288 9.85335C15.1309 9.85467 15.1333 9.85599 15.1354 9.85731C15.2427 9.91994 15.3613 9.98984 15.4067 10.0166C15.4124 10.0202 15.4152 10.0217 15.4184 10.0235C15.4206 10.0248 15.4259 10.0279 15.4265 10.0283C15.4171 10.009 15.4064 9.99027 15.397 9.97093C15.3951 9.9672 15.3934 9.96324 15.3915 9.9595C15.0157 9.19686 14.4369 8.54257 13.7269 8.09597C13.0346 7.66058 12.2269 7.41992 11.4147 7.41992C9.39687 7.41992 7.69148 8.81752 7.13428 10.7375C7.66199 10.2742 8.2489 9.88346 8.88092 9.58675C9.61809 9.24082 10.4138 9.02433 11.2217 8.96125Z" fill="black"/>
<path d="M17.6682 9.59259C18.0228 9.23589 18.497 8.94709 19.0055 8.94709C19.4082 8.94709 19.7948 9.11479 20.1558 9.42138C20.1558 9.42138 20.1558 9.42402 20.1558 9.4249V9.42556V9.4249C20.1881 9.45215 20.2197 9.48292 20.2518 9.51281C20.271 9.53083 20.2909 9.54732 20.3099 9.56622C20.3606 9.61611 20.4106 9.66886 20.4602 9.72424C20.4613 9.72534 20.4621 9.72666 20.463 9.72776C20.4628 9.72732 20.4623 9.72688 20.4619 9.72666L20.4578 9.71413C20.0714 8.55258 19.448 7.79785 18.7441 7.79785C17.8103 7.79785 17.0186 9.12731 16.7344 10.9728L16.7374 10.9702C16.9804 10.4741 17.2803 9.98292 17.6682 9.59259Z" fill="black"/>
<path d="M9.4285 21.3403C9.50801 21.3717 9.5888 21.4001 9.66938 21.4291C10.5694 21.7533 11.5359 21.9319 12.5439 21.9319C13.6931 21.9319 14.7892 21.7007 15.7935 21.2845C15.8467 21.2625 15.8987 21.2383 15.9512 21.2152C16.0365 21.1779 16.1212 21.1394 16.2049 21.0994C16.28 21.0636 16.355 21.028 16.4287 20.9902C16.411 20.9924 16.393 20.9959 16.3753 20.9981C16.063 21.0341 15.7533 21.0363 15.4505 20.9917C13.6602 20.7271 13.2635 19.8394 13.3204 18.915C13.1915 18.8385 13.0603 18.7526 12.9269 18.653C11.55 17.626 10.7329 16.5317 10.7329 16.5317C10.7329 16.5317 11.795 17.3748 13.3815 18.0058C13.4155 18.0194 13.4473 18.031 13.4809 18.044C13.5551 17.7805 13.6427 17.5299 13.7199 17.3079C13.7282 17.2838 13.7367 17.2592 13.7449 17.2356C13.8331 16.98 13.9338 16.7293 14.04 16.4809C14.4404 15.5451 14.927 14.6387 15.1668 13.6396L15.2816 13.0815H14.3046H14.3025C14.3025 13.0822 14.3025 13.0829 14.3025 13.0835L14.3021 13.0837C14.3021 13.0866 14.3025 13.0892 14.3025 13.0921C14.3025 13.258 14.2698 13.4161 14.2106 13.56C14.1809 13.6319 14.1448 13.7002 14.1029 13.7642C14.0189 13.8921 13.9116 14.0024 13.7872 14.0888C13.725 14.1321 13.6585 14.1692 13.5886 14.1996C13.4488 14.2605 13.295 14.2941 13.1336 14.2941C13.0925 14.2941 13.0522 14.2919 13.0122 14.2875C13.0028 14.2864 12.9938 14.2844 12.9846 14.2831C12.954 14.2791 12.9237 14.2747 12.894 14.2684C12.8857 14.2666 12.8777 14.264 12.8694 14.262C12.8388 14.2547 12.8085 14.247 12.779 14.2374C12.7737 14.2356 12.7683 14.2332 12.763 14.2312C12.7311 14.2202 12.6993 14.2084 12.6687 14.1945C12.6659 14.1932 12.6634 14.1919 12.6606 14.1906C12.6275 14.1754 12.595 14.1591 12.5638 14.1409C12.5633 14.1407 12.5627 14.1402 12.5623 14.14C12.4616 14.0818 12.3701 14.0086 12.2908 13.9233L8.93648 13.0815H5.27585C5.26003 13.1101 5.24272 13.1378 5.22733 13.1666C5.19933 13.2187 5.17304 13.2717 5.14611 13.3242C5.07986 13.4534 5.01574 13.584 4.95546 13.7165C4.93409 13.7631 4.91293 13.8097 4.89241 13.8567C4.81867 14.0253 4.74835 14.1956 4.68402 14.3681C4.68124 14.3758 4.67803 14.3833 4.67526 14.391C4.60237 14.5888 4.53547 14.7888 4.47541 14.9906C4.39847 15.2495 4.33221 15.511 4.27686 15.7743C4.8533 17.5818 5.97433 19.1348 7.44013 20.2295C7.48266 20.2614 7.52776 20.2897 7.57093 20.3207C7.81886 20.499 8.07492 20.6656 8.3408 20.817C8.68962 21.0155 9.05232 21.1917 9.4285 21.3403Z" fill="white"/>
<path d="M15.4354 18.5613C15.4222 18.6571 15.413 18.7514 15.4104 18.8424C15.4053 19.0079 15.4164 19.1651 15.4399 19.3136C15.4555 19.4128 15.4765 19.5079 15.5017 19.5989C15.5395 19.7356 15.587 19.8633 15.6402 19.9813C15.6932 20.0994 15.752 20.2077 15.8122 20.3062C15.8323 20.3389 15.8526 20.3706 15.8729 20.4011C15.9035 20.4468 15.9341 20.4899 15.9642 20.5304C16.0042 20.5842 16.0429 20.6314 16.0803 20.6758C16.2399 20.8646 16.3656 20.9673 16.3656 20.9673C16.3656 20.9673 16.3664 20.9704 16.3682 20.9756C16.3699 20.9809 16.3724 20.9888 16.3754 20.9983C16.3932 20.9963 16.4111 20.9928 16.4289 20.9904C16.8168 20.9405 17.2077 20.8323 17.5933 20.6897C17.7899 20.6169 17.9857 20.538 18.1785 20.4477C18.2373 20.42 18.2948 20.3895 18.3531 20.3605C20.3462 19.3695 22.015 17.6167 22.015 17.6167C19.5105 18.8818 17.063 18.8314 15.4354 18.5613Z" fill="#393939"/>
<path d="M20.2388 15.1086C20.08 14.8941 19.9199 14.6803 19.7577 14.468C19.7494 14.457 19.7408 14.4462 19.7325 14.4352C19.5617 14.2117 19.3888 13.9897 19.2135 13.7697C19.2114 13.7671 19.2092 13.7642 19.2069 13.7616C19.0265 13.5356 18.8438 13.3117 18.6578 13.0908C18.6461 13.0767 18.6343 13.0627 18.6223 13.0486C18.5086 12.9141 18.393 12.7811 18.2769 12.6488C18.2365 12.6031 18.1964 12.5574 18.1557 12.5119C18.0594 12.4038 17.9621 12.2967 17.8638 12.1906C17.7873 12.1082 17.7099 12.0271 17.6323 11.946C17.5592 11.8695 17.4863 11.7923 17.4122 11.7169C17.2525 11.5554 17.0911 11.3958 16.9261 11.2405C16.853 11.1719 16.7791 11.1042 16.7043 11.0376L16.7032 11.0398C16.8605 11.5044 17.0398 11.975 17.1296 12.4594C17.1529 12.5853 17.1724 12.7082 17.188 12.8279C17.407 14.5051 16.8845 15.6001 16.0543 17.0405C15.9949 17.1438 15.9338 17.2486 15.8714 17.3559C15.6816 17.6812 15.5599 17.9893 15.4896 18.2788C15.4661 18.3752 15.4484 18.4695 15.4355 18.5616C17.0631 18.8317 19.5106 18.8821 22.0147 17.6168C22.0147 17.6168 21.5238 16.8746 20.7847 15.8543C20.6195 15.6262 20.453 15.3983 20.2852 15.171C20.2698 15.1499 20.2542 15.1293 20.2388 15.1086Z" fill="#5F5F5F"/>
<path d="M16.3652 20.967C16.3652 20.967 16.2395 20.8646 16.0798 20.6755C16.0424 20.6311 16.004 20.5839 15.9638 20.53C15.9337 20.4896 15.9031 20.4465 15.8725 20.4008C15.8522 20.3703 15.8319 20.3386 15.8118 20.3059C15.7515 20.2076 15.6928 20.0993 15.6398 19.981C15.5868 19.863 15.5393 19.7353 15.5013 19.5986C15.476 19.5074 15.4551 19.4122 15.4395 19.3133C15.4162 19.1648 15.4051 19.0076 15.41 18.8421C15.4128 18.7511 15.4218 18.6568 15.435 18.561C15.4478 18.4689 15.4656 18.3744 15.4891 18.2782C15.5594 17.9889 15.681 17.6808 15.8708 17.3553C15.8715 17.3544 15.8719 17.3535 15.8723 17.3527C15.9343 17.2465 15.9948 17.1423 16.0538 17.0401C16.8837 15.5997 17.4063 14.5047 17.1874 12.8276C17.1718 12.7078 17.1524 12.5851 17.1291 12.459C17.1167 12.546 17.1038 12.621 17.0908 12.684C17.0895 12.6902 17.0882 12.6959 17.087 12.7018C17.0786 12.7401 17.0703 12.7748 17.0617 12.8007C16.7012 13.8979 16.1016 14.7509 15.2852 15.6623C15.1745 15.7858 15.0586 15.9111 14.94 16.0375C14.7404 16.2502 14.5311 16.4676 14.3095 16.6944C14.2212 16.7847 14.131 16.8766 14.0393 16.97C13.9551 17.0557 13.8444 17.1727 13.7194 17.3076C13.6422 17.5298 13.5544 17.7803 13.4804 18.0436C13.4471 18.0307 13.4152 18.019 13.381 18.0054C11.7947 17.3744 10.7324 16.5313 10.7324 16.5313C10.7324 16.5313 11.5495 17.6256 12.9264 18.6527C13.0598 18.7522 13.191 18.8382 13.3199 18.9146C13.263 19.839 13.6597 20.7267 15.45 20.9914C15.7526 21.0362 16.0625 21.034 16.3748 20.9977C16.3716 20.9883 16.3692 20.9804 16.3675 20.9751C16.366 20.97 16.3652 20.967 16.3652 20.967Z" fill="#6D6D6D"/>
</svg>
