<svg width="132" height="30" viewBox="0 0 132 30" fill="none" xmlns="http://www.w3.org/2000/svg">
<path d="M38.7226 15.1357C37.5134 14.5968 36.5331 14.0826 36.5331 13.2765C36.5331 12.7129 37.1512 12.1453 38.2106 12.1453C39.1104 12.1586 39.9976 12.3704 40.8136 12.7667C41.0957 12.9228 41.4457 12.8151 41.6013 12.5238L41.995 11.6355C42.1367 11.2978 42.0294 10.903 41.739 10.6934C40.6625 10.0462 39.4366 9.7202 38.1947 9.75158C35.2569 9.75158 34.0439 11.6064 34.0439 13.1984C34.0439 15.2548 35.5917 16.3201 37.4465 17.2091C39.1241 17.986 40.0497 18.5538 40.0497 19.3888C40.0497 20.1129 39.4825 20.6227 38.4745 20.6227C37.4026 20.6219 36.3543 20.2943 35.4578 19.6809C35.1982 19.4978 34.8457 19.5696 34.6707 19.8407C34.6706 19.841 34.6704 19.8412 34.6701 19.8412L34.1307 21.026C34.0294 21.2641 34.1182 21.5436 34.3355 21.6717C35.5102 22.5155 36.903 22.9657 38.3286 22.9633C41.0341 22.9633 42.6606 21.2397 42.6606 19.2611C42.6174 16.9908 40.9397 16.1313 38.7226 15.1357Z" fill="#043653"/>
<path d="M22.6588 26.575C21.4222 25.6043 19.6187 24.8802 17.6849 24.1073C15.389 23.1898 12.7859 22.1409 10.8563 20.4997C8.72399 18.8396 7.50097 16.1971 7.57989 13.4207C7.53148 10.8783 8.65336 8.46626 10.5964 6.9342C12.8135 5.10381 16.165 4.16181 20.288 4.16181C21.3731 4.16112 22.4568 4.23253 23.5331 4.37554C23.6246 4.38685 23.7112 4.33049 23.7418 4.2399C23.7913 4.15817 23.7683 4.04987 23.6906 3.99725C17.8725 -1.47574 8.90828 -0.986293 3.66826 5.09043C-1.57176 11.1672 -1.10307 20.5302 4.71498 26.003C7.31489 28.4487 10.6889 29.8042 14.1879 29.808C17.2247 29.823 20.1834 28.8036 22.6154 26.9039C22.6605 26.8615 22.6887 26.803 22.6942 26.7395C22.7178 26.6818 22.6943 26.6285 22.6588 26.575Z" fill="#043653"/>
<path d="M28.3142 13.6552C28.3135 13.5985 28.2834 13.5464 28.2354 13.5196C25.2699 10.961 22.8756 9.91211 19.9653 9.91211C18.4217 9.91211 17.2363 10.2369 16.4212 10.8827C15.7418 11.4036 15.3469 12.2364 15.3617 13.1164C15.3617 15.646 18.3548 16.8183 21.7808 18.1759C23.6054 18.8349 25.3799 19.6366 27.0895 20.5737C27.1202 20.5931 27.1561 20.6016 27.1919 20.5984C27.2203 20.6019 27.2488 20.5931 27.2707 20.5737C27.3306 20.5505 27.3783 20.5009 27.4007 20.438C28.0447 18.7142 28.3759 16.8798 28.3772 15.0291C28.3818 14.5702 28.3608 14.1113 28.3142 13.6552Z" fill="#043653"/>
<path d="M109.829 22.8852C110.169 22.86 110.436 22.5707 110.447 22.2145V15.7816C110.447 12.4908 110.053 9.94071 106.013 9.94071C104.532 9.93068 103.06 10.1854 101.661 10.6934C101.352 10.7684 101.159 11.0907 101.231 11.4142C101.236 11.4346 101.241 11.4549 101.248 11.4748L101.504 12.5485C101.536 12.8854 101.824 13.1311 102.146 13.0976C102.167 13.0951 102.188 13.0917 102.209 13.0873C103.359 12.7199 104.551 12.5125 105.753 12.4704C107.352 12.4704 107.84 13.4122 107.789 15.5102C106.959 15.2547 106.101 15.1168 105.237 15.0986C101.992 15.0986 100.185 16.929 100.185 19.3519C100.185 22.0996 101.862 23.0538 104.233 23.0538C106.166 23.0538 108.171 23.0249 109.002 22.9716L109.829 22.8852ZM107.742 20.5446C107.348 21.1903 105.989 21.0301 104.804 21.0013C103.489 20.9764 102.835 20.4909 102.835 19.3065C102.835 17.9327 103.965 17.1268 105.438 17.1268C106.224 17.1133 107.004 17.2687 107.73 17.5833V20.5447H107.742V20.5446Z" fill="#043653"/>
<path d="M130.501 9.80522C131.299 9.80522 131.946 9.12958 131.946 8.29567C131.946 7.46187 131.299 6.78613 130.501 6.78613C129.702 6.78613 129.055 7.46187 129.055 8.29567C129.053 9.12731 129.697 9.80295 130.492 9.80522C130.495 9.80522 130.498 9.80522 130.501 9.80522ZM130.501 7.03282C131.183 7.01944 131.747 7.5864 131.761 8.29941C131.774 9.01272 131.231 9.602 130.548 9.61558C129.865 9.62915 129.301 9.0623 129.288 8.34889C129.288 8.34062 129.288 8.33256 129.288 8.32459C129.275 7.62485 129.807 7.04679 130.477 7.03321C130.485 7.03312 130.492 7.03282 130.501 7.03282Z" fill="#043653"/>
<path d="M130.008 9.07701H130.138C130.165 9.07504 130.187 9.05212 130.189 9.0236V8.48468H130.5L130.756 9.05232C130.756 9.07691 130.784 9.07691 130.807 9.07691H130.957C130.984 9.07691 131.008 9.05232 130.984 9.0235L130.701 8.48458C130.872 8.42232 130.992 8.2614 131.008 8.07334C131.017 7.81898 130.827 7.60554 130.583 7.59619C130.577 7.59619 130.57 7.59619 130.563 7.59619H129.996C129.969 7.59816 129.947 7.62098 129.945 7.6496V9.07681C129.984 9.05242 129.984 9.07701 130.008 9.07701ZM130.189 7.76085H130.563C130.705 7.76085 130.819 7.88055 130.819 8.02809C130.819 8.17563 130.705 8.29553 130.563 8.29553H130.201L130.189 7.76085Z" fill="#043653"/>
<path d="M50.6824 9.80511C49.4074 9.83275 48.1763 10.2967 47.1777 11.1255V5.46987C47.1567 5.15226 46.9147 4.89918 46.6106 4.87744H45.1416C44.8328 4.88806 44.5848 5.14715 44.5747 5.46987V22.4285C44.5768 22.7547 44.8293 23.0187 45.1416 23.0211H46.5831C46.8843 23.0484 47.1497 22.816 47.1762 22.5013C47.1781 22.4772 47.1788 22.4528 47.1778 22.4285V14.2476C47.8458 13.0898 49.0541 12.3919 50.3479 12.4172C51.9232 12.4172 52.7699 13.6511 52.7699 15.7075V22.4083C52.7721 22.7344 53.0245 22.9982 53.3371 23.0005H54.8058C55.1147 22.99 55.3629 22.7307 55.3729 22.4083V15.7818C55.3728 12.3349 54.1086 9.80511 50.6824 9.80511Z" fill="#043653"/>
<path d="M81.4038 15.9175C81.2461 11.6066 79.5213 9.80518 75.5516 9.80518C74.0225 9.83508 72.5045 10.0885 71.0426 10.5579C70.6289 10.7471 70.3218 10.9691 70.3218 11.2571V27.3812C70.3241 27.7075 70.5765 27.9711 70.889 27.9734H72.098C72.4027 28.0101 72.6779 27.7819 72.7128 27.4634C72.7157 27.4362 72.7169 27.4084 72.7159 27.3812V22.8154C73.9788 23.0115 75.2566 23.0843 76.5322 23.0333C79.3403 22.9514 81.2225 20.8246 81.3761 17.2173C81.4037 16.6802 81.4037 16.1418 81.3761 15.6047V15.9011L81.4038 15.9175ZM78.8756 17.2338C78.8243 19.7016 78.1548 20.7587 76.1701 20.8701C75.0761 20.8592 73.9837 20.7864 72.8976 20.6518C72.7949 20.6271 72.7438 20.5737 72.7438 20.4911V12.7131C72.7394 12.6431 72.7901 12.5824 72.8575 12.5775C72.863 12.5772 72.8685 12.5772 72.8737 12.5775C73.7523 12.3623 74.6495 12.2452 75.5517 12.2277C77.9502 12.2277 78.7731 12.6063 78.8757 15.7529V17.2338H78.8756Z" fill="#043653"/>
<path d="M98.775 10.064H97.6644C97.357 10.064 96.8766 10.064 96.7389 10.4426L94.8052 17.7395H94.7541L91.5052 10.0932C91.4117 9.88877 91.2045 9.76965 90.9892 9.7968H90.808C90.6052 9.79267 90.417 9.90677 90.3196 10.0932L87.0471 17.7108H86.9962L85.0271 10.4426C84.9514 10.2022 84.7291 10.046 84.4873 10.064H82.8729C82.4592 10.064 82.2783 10.3891 82.4592 10.7924L86.0035 22.7207C86.0761 22.9329 86.2772 23.0666 86.4919 23.0459H86.6455C86.8466 23.0675 87.0367 22.9463 87.1103 22.7495L90.8473 14.1366H90.8986L94.6086 22.7207C94.7134 22.9131 94.9127 23.0271 95.1246 23.0171H95.2268C95.4544 23.0392 95.6711 22.9113 95.7702 22.696L99.2241 10.7677C99.4169 10.3976 99.1843 10.064 98.775 10.064Z" fill="#043653"/>
<path d="M118.103 9.96533H117.611C116.992 9.96533 116.374 9.99405 115.807 10.0187C114.724 10.0724 114.082 10.1547 113.617 10.2078C113.617 10.2078 113.334 10.2366 112.972 10.29C112.78 10.3044 112.603 10.4014 112.483 10.5576C112.413 10.638 112.376 10.7447 112.381 10.8538V22.4282C112.383 22.7544 112.636 23.0184 112.948 23.0208H114.157C114.649 23.0208 115.007 22.9673 115.007 22.4282V14.5888V12.7913C115.007 12.7129 115.114 12.6307 115.189 12.5772C115.472 12.3881 116.193 12.2524 117.638 12.2524H117.961C118.307 12.274 118.646 12.356 118.965 12.495C119.237 12.6342 119.565 12.5177 119.698 12.2344C119.704 12.2228 119.709 12.2109 119.714 12.199L120.332 11.1253C120.718 10.2902 119.261 9.96533 118.103 9.96533Z" fill="#043653"/>
<path d="M126.428 9.80509C122.793 9.80509 120.395 12.8449 120.395 16.3865C120.395 19.9279 122.793 23.0086 126.452 23.0086C128.081 23.0635 129.676 22.5157 130.957 21.462C131.315 21.1371 131.213 20.8945 131.008 20.5983L130.288 19.4424C130.079 19.1176 129.846 19.1997 129.563 19.389C128.722 20.0884 127.677 20.467 126.602 20.4626C124.713 20.5024 123.126 18.9882 122.994 17.0198H131.351C131.638 17.0121 131.872 16.7795 131.894 16.4809C131.918 16.2672 131.946 15.8349 131.946 15.5926C132.034 12.4883 129.696 9.89774 126.724 9.80597C126.625 9.80263 126.527 9.80233 126.428 9.80509ZM123.101 15C123.282 13.4124 124.444 12.1208 126.349 12.1208C127.931 12.0493 129.269 13.3306 129.338 14.9827C129.338 14.9887 129.338 14.9944 129.339 15H123.101Z" fill="#043653"/>
<path d="M68.2074 13.709C67.9548 12.9365 67.5616 12.2227 67.0493 11.6068C66.5547 11.0311 65.9477 10.5724 65.2689 10.2618C64.4927 9.9383 63.6636 9.77335 62.8276 9.77659C61.9898 9.76941 61.1589 9.93446 60.382 10.2618C59.7071 10.5789 59.1012 11.0366 58.6019 11.6068C58.0979 12.229 57.7055 12.9412 57.4442 13.709C56.893 15.4658 56.893 17.3607 57.4442 19.1179C57.7005 19.8744 58.0935 20.5728 58.6019 21.1745C59.09 21.7578 59.6987 22.2176 60.382 22.5196C61.1578 22.8522 61.9887 23.0228 62.8276 23.0214C63.6668 23.0305 64.4992 22.8655 65.2772 22.5359C65.9522 22.2196 66.5582 21.7616 67.057 21.1909C67.5601 20.5847 67.9522 19.8877 68.2149 19.1341C68.7662 17.3774 68.7662 15.4823 68.2149 13.7253L68.2074 13.709ZM62.7683 20.8702C60.5788 20.8702 59.4723 18.9287 59.4723 16.5347C59.4723 14.141 60.5788 12.1994 62.7683 12.1994C64.9582 12.1994 66.0682 14.141 66.0682 16.5347C66.0682 18.9287 64.962 20.8702 62.7683 20.8702Z" fill="#043653"/>
</svg>
