<svg width="140" height="32" viewBox="0 0 140 32" fill="none" xmlns="http://www.w3.org/2000/svg">
<g clip-path="url(#clip0_2_3705)">
<path d="M81.0356 12.5065H75.5975V13.0912C77.2985 13.0912 77.572 13.4608 77.572 15.6474V19.5893C77.572 21.7757 77.2987 22.1761 75.5975 22.1761C74.2914 21.9914 73.4101 21.2829 72.1949 19.928L70.7976 18.3884C72.681 18.0492 73.6833 16.8485 73.6833 15.4933C73.6833 13.8 72.2558 12.5065 69.5821 12.5065H64.2352V13.0912C65.9363 13.0912 66.2097 13.4608 66.2097 15.6474V19.5893C66.2097 21.7757 65.9363 22.1761 64.2352 22.1761V22.7611H70.2808V22.1761C68.5798 22.1761 68.3063 21.7757 68.3063 19.5893V18.481H68.8225L72.1949 22.7611H81.0356C85.3799 22.7611 87.2636 20.421 87.2636 17.6182C87.2636 14.816 85.3802 12.5065 81.0356 12.5065ZM68.3065 17.5256V13.4304H69.5519C70.9188 13.4304 71.5267 14.385 71.5267 15.4936C71.5267 16.5716 70.9188 17.5259 69.5519 17.5259H68.3065V17.5256ZM81.127 21.8065H80.9141C79.8207 21.8065 79.6688 21.5296 79.6688 20.1129V13.4304H81.127C84.2865 13.4304 84.8634 15.7705 84.8634 17.5876C84.8634 19.4659 84.2862 21.8065 81.127 21.8065ZM47.3141 18.6656L49.4104 12.383C50.0182 10.5662 49.7447 10.0429 47.8004 10.0429V9.42676H53.5118V10.0429C51.598 10.0429 51.1423 10.5048 50.3828 12.7528L46.9191 23.2847H46.5243L43.4252 13.6457L40.266 23.2847H39.8709L36.4988 12.7528C35.7697 10.5048 35.2836 10.0429 33.5215 10.0429V9.42676H40.266V10.0429C38.4733 10.0429 37.987 10.4739 38.6253 12.383L40.6607 18.6656L43.7291 9.42676H44.3065L47.3141 18.6656ZM57.643 23.1612C54.3013 23.1612 51.567 20.6671 51.567 17.618C51.567 14.6002 54.3016 12.1056 57.643 12.1056C60.9849 12.1056 63.719 14.6002 63.719 17.618C63.719 20.6671 60.9849 23.1612 57.643 23.1612ZM57.643 13.0609C54.8483 13.0609 53.8759 15.6165 53.8759 17.6182C53.8759 19.651 54.8483 22.1761 57.643 22.1761C60.4687 22.1761 61.4408 19.651 61.4408 17.6182C61.4408 15.6165 60.4687 13.0609 57.643 13.0609Z" fill="#6D6D6D"/>
<path d="M94.7671 22.145V22.7609H87.8101V22.145C89.8457 22.145 90.2103 21.6217 90.2103 18.5417V13.6148C90.2103 10.5349 89.8457 10.0424 87.8101 10.0424V9.42627H94.0986C97.2277 9.42627 98.9599 11.0584 98.9599 13.2453C98.9599 15.3702 97.2277 17.033 94.0986 17.033H92.3669V18.5414C92.3669 21.6217 92.7315 22.145 94.7671 22.145ZM94.0986 10.5349H92.3669V15.8935H94.0986C95.8002 15.8935 96.5899 14.6926 96.5899 13.2453C96.5899 11.7672 95.8002 10.5349 94.0986 10.5349ZM119.831 19.8663L119.679 20.4205C119.405 21.4368 119.071 21.8063 116.914 21.8063H116.488C114.909 21.8063 114.635 21.4368 114.635 19.2504V17.834C117.005 17.834 117.188 18.0492 117.188 19.6508H117.765V15.0621H117.188C117.188 16.6634 117.005 16.8789 114.635 16.8789V13.4302H116.306C118.463 13.4302 118.797 13.7997 119.071 14.816L119.223 15.4008H119.709L119.496 12.5062H110.564V13.091C112.265 13.091 112.539 13.4605 112.539 15.6471V19.5891C112.539 21.5892 112.307 22.0931 110.966 22.1649C109.691 21.9676 108.816 21.2628 107.618 19.9278L106.22 18.3882C108.104 18.049 109.107 16.8483 109.107 15.4931C109.107 13.7997 107.679 12.5062 105.005 12.5062H99.6586V13.091C101.36 13.091 101.633 13.4605 101.633 15.6471V19.5891C101.633 21.7754 101.36 22.1758 99.6586 22.1758V22.7609H105.704V22.1758C104.003 22.1758 103.73 21.7754 103.73 19.5891V18.4807H104.246L107.618 22.7609H120.104L120.287 19.8666H119.831V19.8663ZM103.729 17.5254V13.4302H104.975C106.342 13.4302 106.95 14.3848 106.95 15.4934C106.95 16.5714 106.342 17.5257 104.975 17.5257H103.729V17.5254ZM125.998 23.161C124.782 23.161 123.719 22.5145 123.263 22.1138C123.111 22.2681 122.838 22.73 122.778 23.161H122.2V18.9117H122.808C123.051 20.944 124.448 22.145 126.241 22.145C127.213 22.145 128.003 21.5908 128.003 20.6671C128.003 19.8666 127.304 19.2504 126.059 18.6654L124.327 17.834C123.111 17.2485 122.2 16.2322 122.2 14.8775C122.2 13.3993 123.567 12.137 125.451 12.137C126.454 12.137 127.304 12.5065 127.821 12.9375C127.972 12.8143 128.124 12.4754 128.216 12.1056H128.793V15.7397H128.155C127.942 14.2922 127.152 13.0913 125.542 13.0913C124.692 13.0913 123.901 13.584 123.901 14.3542C123.901 15.1547 124.539 15.5857 125.998 16.2633L127.668 17.0947C129.127 17.8029 129.704 18.9429 129.704 19.8666C129.704 21.8063 128.033 23.161 125.998 23.161ZM135.355 23.161C134.139 23.161 133.076 22.5145 132.62 22.1138C132.468 22.2681 132.195 22.73 132.135 23.161H131.557V18.9117H132.165C132.408 20.944 133.805 22.145 135.598 22.145C136.57 22.145 137.36 21.5908 137.36 20.6671C137.36 19.8666 136.661 19.2504 135.415 18.6654L133.684 17.834C132.468 17.2485 131.557 16.2322 131.557 14.8775C131.557 13.3993 132.924 12.137 134.808 12.137C135.81 12.137 136.661 12.5065 137.177 12.9375C137.329 12.8143 137.481 12.4754 137.572 12.1056H138.149V15.7397H137.512C137.299 14.2922 136.509 13.0913 134.899 13.0913C134.048 13.0913 133.258 13.584 133.258 14.3542C133.258 15.1547 133.896 15.5857 135.355 16.2633L137.025 17.0947C138.484 17.8029 139.061 18.9429 139.061 19.8666C139.061 21.8063 137.39 23.161 135.355 23.161Z" fill="#6D6D6D"/>
<path d="M3.13988 15.886C3.13988 21.2805 6.23263 25.9423 10.7173 28.1514L4.30392 10.3397C3.55791 12.0346 3.13988 13.9103 3.13988 15.886ZM25.6612 15.1983C25.6612 13.514 25.0643 12.3476 24.5524 11.4397C23.8709 10.3171 23.2321 9.36644 23.2321 8.24384C23.2321 6.99105 24.1694 5.82488 25.4898 5.82488C25.5494 5.82488 25.6059 5.8324 25.664 5.83577C23.272 3.61443 20.0851 2.25817 16.5848 2.25817C11.8878 2.25817 7.75533 4.70098 5.35129 8.40098C5.66673 8.41058 5.964 8.41732 6.21651 8.41732C7.62281 8.41732 9.79967 8.24435 9.79967 8.24435C10.5244 8.20105 10.6099 9.28009 9.88589 9.36696C9.88589 9.36696 9.15754 9.45383 8.34707 9.49688L13.2432 24.2588L16.1855 15.314L14.0907 9.49636C13.3667 9.45331 12.6808 9.36644 12.6808 9.36644C11.9563 9.32339 12.0413 8.20053 12.7658 8.24384C12.7658 8.24384 14.9861 8.4168 16.3072 8.4168C17.7133 8.4168 19.8904 8.24384 19.8904 8.24384C20.6157 8.20053 20.7009 9.27957 19.9766 9.36644C19.9766 9.36644 19.2467 9.45331 18.4378 9.49636L23.2965 24.1465L24.6376 19.6039C25.2189 17.7189 25.6612 16.365 25.6612 15.1983ZM16.8207 17.0781L12.7868 28.96C13.9912 29.3189 15.265 29.5152 16.5848 29.5152C18.1505 29.5152 19.652 29.2409 21.0496 28.7427C21.0135 28.6843 20.9808 28.6224 20.9539 28.5549L16.8207 17.0781ZM28.3822 9.34751C28.44 9.78161 28.4728 10.2476 28.4728 10.7489C28.4728 12.1318 28.218 13.6865 27.4505 15.6304L23.3436 27.6663C27.3407 25.3036 30.0292 20.914 30.0292 15.8863C30.0295 13.5169 29.4324 11.2888 28.3822 9.34751ZM16.5848 0C7.94311 0 0.912109 7.12642 0.912109 15.886C0.912109 24.6467 7.94311 31.7729 16.5848 31.7729C25.2263 31.7729 32.2583 24.6467 32.2583 15.886C32.258 7.12642 25.2263 0 16.5848 0ZM16.5848 31.0447C8.33939 31.0447 1.63074 24.2445 1.63074 15.886C1.63074 7.52811 8.33914 0.728435 16.5848 0.728435C24.83 0.728435 31.5381 7.52811 31.5381 15.886C31.5381 24.2445 24.83 31.0447 16.5848 31.0447Z" fill="#6D6D6D"/>
</g>
<defs>
<clipPath id="clip0_2_3705">
<rect width="138.149" height="32" fill="white" transform="translate(0.912109)"/>
</clipPath>
</defs>
</svg>
